<svg width="1052" height="692" viewBox="0 0 1052 692" fill="none" xmlns="http://www.w3.org/2000/svg">
<path d="M452.79 179.5C452.403 177.093 450.953 175.867 448.44 175.82C441.293 175.673 434.15 175.733 427.01 176C426.617 176.013 426.547 175.87 426.8 175.57C433.907 167.343 441.083 159.18 448.33 151.08C450.33 148.847 451.45 147.3 451.69 146.44C452.357 144.067 451.627 142.503 449.5 141.75C448.12 141.263 446.547 141.08 444.78 141.2C441.793 141.4 440.263 141.5 440.19 141.5C433.417 141.573 424.52 142.157 413.5 143.25C410.047 143.59 407.293 144.357 405.24 145.55C404.947 145.723 404.947 145.893 405.24 146.06C409.393 148.413 412.897 149.643 415.75 149.75C422.423 150.003 429.637 149.787 437.39 149.1C438.583 149 438.787 149.4 438 150.3C430.633 158.813 423.363 167.11 416.19 175.19C414.457 177.143 413.557 179.04 413.49 180.88" stroke="#808080" stroke-width="2"/>
<path d="M413.49 180.88C402.217 180.893 390.957 181.317 379.71 182.15C371.597 182.757 364.95 183.217 359.77 183.53C342.15 184.59 324.997 186.35 308.31 188.81C302.043 189.737 295.617 190.997 289.03 192.59C277.997 195.263 272.457 196.607 272.41 196.62C251.957 201.293 233.007 206.357 215.56 211.81C214.187 212.243 213.097 212.14 212.29 211.5" stroke="#F4F5F4" stroke-width="2"/>
<path d="M212.29 211.5C212.357 200.033 212.287 188.567 212.08 177.1C212.02 173.833 211.623 171.33 210.89 169.59C209.837 167.09 208.27 164.997 206.19 163.31C202.017 159.93 197.403 158.62 192.35 159.38C189.31 159.833 186.59 161 184.19 162.88C181.697 164.833 179.837 167.27 178.61 170.19C177.703 172.363 177.253 175.637 177.26 180.01C177.287 195.75 177.253 211.343 177.16 226.79" stroke="#808080" stroke-width="2"/>
<path d="M177.16 226.79C153.647 234.983 131.56 246.007 110.9 259.86C95.8134 269.973 83.2834 280.04 73.31 290.06C66.1967 297.213 59.69 304.877 53.79 313.05C49.89 318.45 46.7134 324.227 44.26 330.38C44.0334 330.96 43.1634 333.61 41.65 338.33C40.7967 340.997 39.7934 343.61 38.64 346.17C33.2067 358.237 28.9467 370.67 25.86 383.47C24.1667 390.51 23.1767 397.093 22.89 403.22C22.45 412.673 23.0767 422.1 24.77 431.5C27.1167 444.493 30.2134 457.307 34.06 469.94C38.02 482.94 45.1067 495.07 55.32 506.33" stroke="#F4F5F4" stroke-width="2"/>
<path d="M55.3201 506.33C49.5468 507.117 44.2101 507.527 39.3101 507.56C39.1532 507.56 38.9996 507.599 38.8633 507.672C38.7271 507.746 38.6125 507.852 38.5301 507.98C37.4568 509.64 36.6201 511.71 36.0201 514.19C36.005 514.258 36.005 514.328 36.0201 514.395C36.0352 514.462 36.0651 514.525 36.1073 514.579C36.1496 514.633 36.2033 514.676 36.2644 514.706C36.3255 514.736 36.3924 514.751 36.4601 514.75H72.1901" stroke="#808080" stroke-width="2"/>
<path d="M72.19 514.75C70.01 519.03 70.6334 523.093 74.06 526.94C79.4134 532.94 84.6767 538.237 89.85 542.83C92.77 545.41 97.9267 549.63 105.32 555.49C128.76 574.07 154.023 589.813 181.11 602.72C194.89 609.28 205.937 614.207 214.25 617.5C236.757 626.407 261.05 634.24 287.13 641C292.97 642.513 299.447 644.053 306.56 645.62C330.56 650.92 351.79 654.963 370.25 657.75C396.403 661.697 424.403 663.413 454.25 662.9C471.177 662.6 482.26 662.3 487.5 662C512.947 660.533 538.013 656.723 562.7 650.57C570.487 648.63 574.41 647.653 574.47 647.64C585.43 645.02 596.417 642.527 607.43 640.16C610.597 639.48 615.87 638.76 623.25 638C638.597 636.42 647.763 635.503 650.75 635.25C674.997 633.163 699.663 633.747 724.75 637C742.203 639.26 758.413 642.173 773.38 645.74C785.053 648.527 791.54 650.053 792.84 650.32C803.867 652.587 813.753 654.147 822.5 655C828.253 655.56 834.597 655.333 841.53 654.32C847.503 653.447 850.533 653.007 850.62 653C855.473 652.407 858.517 652.073 859.75 652C863.703 651.773 867.297 651.32 870.53 650.64C872.71 650.187 876.21 649.313 881.03 648.02C887.843 646.187 893.98 643.577 899.44 640.19C905.687 636.303 911.577 631.94 917.11 627.1C918.19 626.153 919.507 624.557 921.06 622.31C924.267 617.683 928.35 612.85 933.31 607.81C934.47 606.63 935.993 604.817 937.88 602.37C937.933 602.297 938.75 601.28 940.33 599.32C944.717 593.847 947.223 587.63 947.85 580.67C948.11 577.75 948.493 575.523 949 573.99C950.593 569.197 952.653 564.603 955.18 560.21C955.707 559.29 956.063 558.31 956.25 557.27C956.857 553.85 957.54 550.45 958.3 547.07C959.227 542.963 959.743 539.543 959.85 536.81C960.157 529.41 959.593 522.057 958.16 514.75" stroke="#F4F5F4" stroke-width="2"/>
<path d="M958.16 514.75C959.84 514.877 961.133 514.34 962.04 513.14C962.867 512.06 963.083 510.85 962.69 509.51C962.157 507.69 960.737 506.76 958.43 506.72" stroke="#808080" stroke-width="2"/>
<path d="M958.43 506.72C956.583 482.94 956.19 460.867 957.25 440.5C957.943 427.26 960.06 413.64 963.6 399.64C965.973 390.26 967.727 383.833 968.86 380.36C971.247 373 974.483 365.987 978.57 359.32C980.25 356.573 982.707 353.613 985.94 350.44C990.773 345.687 995.647 339.81 1000.56 332.81C1003.83 328.157 1007.78 321.96 1012.41 314.22C1015.06 309.8 1017.05 306.013 1018.4 302.86C1020.09 298.92 1021.51 294.877 1022.68 290.73C1024.39 284.63 1026.13 278.54 1027.9 272.46C1027.91 272.44 1029.12 268.843 1031.51 261.67C1033.14 256.79 1034.31 251.65 1035 246.25C1035.29 244.05 1035.31 241.943 1035.06 239.93C1034.99 239.343 1034.41 237.457 1033.33 234.27C1032.54 231.957 1032.18 229.45 1032.25 226.75C1032.44 219.077 1032.33 210.467 1031.92 200.92C1031.92 200.84 1031.93 198.393 1031.95 193.58C1031.96 190.047 1031.48 186.437 1030.5 182.75C1029.01 177.157 1027.25 171.85 1025.22 166.83C1023.46 162.477 1021.13 157.403 1018.24 151.61C1014.38 143.89 1009.82 136.083 1004.56 128.19C992.847 110.603 979.573 94.8399 964.74 80.8999C959.28 75.7733 954.297 71.3433 949.79 67.6099C933.91 54.4566 916.2 44.2966 896.66 37.13C875.72 29.4433 854.08 26.1966 831.74 27.39C818.733 28.0833 806.737 29.9533 795.75 32.9999C784.543 36.1066 773.013 40.2466 761.16 45.42C754.92 48.1466 748.953 51.1099 743.26 54.3099C728.393 62.6633 714.42 72.3233 701.34 83.29C694.087 89.37 690.443 92.4233 690.41 92.45C686.523 95.6233 682.63 98.7933 678.73 101.96C646.517 128.133 610.397 146.817 570.37 158.01C550.337 163.61 530.023 167.907 509.43 170.9C492.163 173.413 474.03 175.703 455.03 177.77C454.834 177.792 454.652 177.883 454.517 178.029C454.383 178.174 454.306 178.362 454.3 178.56C454.28 179.253 453.777 179.567 452.79 179.5" stroke="#F4F5F4" stroke-width="2"/>
<path d="M958.43 506.72L917.75 506.75C917.69 506.75 917.631 506.737 917.577 506.711C917.523 506.685 917.475 506.646 917.439 506.599C917.402 506.552 917.377 506.496 917.365 506.438C917.353 506.379 917.355 506.318 917.37 506.26C919.797 496.893 921.373 487.56 922.1 478.26C923.807 456.513 923.507 434.823 921.2 413.19C920.327 405.003 919.533 398.38 918.82 393.32C916.887 379.54 913.78 366.85 909.5 355.25C901.067 332.377 888.717 310.56 872.45 289.8C858.17 271.573 841.453 255.96 822.3 242.96C801.667 228.96 779.15 219.307 754.75 214C721.603 206.793 688.183 208.37 654.49 218.73C635.903 224.443 618.27 232.29 601.59 242.27C591.677 248.197 582.163 254.707 573.05 261.8C546.997 282.1 524.163 305.533 504.55 332.1C504.513 332.148 504.467 332.187 504.413 332.215C504.36 332.243 504.301 332.259 504.241 332.26C504.181 332.262 504.122 332.251 504.069 332.226C504.015 332.202 503.967 332.166 503.93 332.12C499.763 327.24 495.167 322.803 490.14 318.81C490.017 318.712 489.915 318.591 489.841 318.453C489.767 318.316 489.723 318.165 489.71 318.01C488.037 298.537 486.43 279.053 484.89 259.56C484.67 256.747 483.48 255.357 481.32 255.39C480.24 255.403 478.837 255.96 477.11 257.06C459.97 268 442.87 279 425.81 290.06C424.683 290.793 423.08 291.107 421 291C411.087 290.507 400.337 291.333 388.75 293.48C379.363 295.22 370.323 298.407 361.63 303.04C361.434 303.147 361.217 303.213 360.992 303.234C360.767 303.254 360.538 303.229 360.32 303.16C344.46 298.24 329 293.217 313.94 288.09C312.207 287.497 310.177 286.887 307.85 286.26C305.81 285.7 303.777 285.107 301.75 284.48C300.483 284.08 299.46 283.96 298.68 284.12C297.38 284.387 296.513 285.087 296.08 286.22C295.773 287.013 295.773 288.37 296.08 290.29C299.633 312.663 303.057 334.743 306.35 356.53C306.49 357.423 306.4 358.29 306.08 359.13C297.007 383.163 297.063 406.777 306.25 429.97C306.272 430.021 306.28 430.076 306.275 430.131C306.27 430.186 306.251 430.239 306.22 430.284C306.19 430.33 306.148 430.367 306.099 430.393C306.05 430.418 305.995 430.431 305.94 430.43L213.15 430.25C212.923 430.25 212.704 430.161 212.542 430.002C212.379 429.843 212.285 429.627 212.28 429.4C212.187 425.227 212.187 421.25 212.28 417.47C212.42 411.503 212.483 407.527 212.47 405.54C212.19 340.86 212.13 276.18 212.29 211.5" stroke="#757675" stroke-width="2"/>
<path d="M413.49 180.88C414.337 182.76 415.757 183.703 417.75 183.71C427.817 183.763 437.88 183.76 447.94 183.7C449.567 183.687 450.693 183.487 451.32 183.1C452.46 182.407 452.95 181.207 452.79 179.5" stroke="#757675" stroke-width="2"/>
<path d="M958.16 514.75H914.8C914.65 514.751 914.504 514.797 914.38 514.883C914.257 514.968 914.163 515.089 914.11 515.23C911.93 521.023 909.247 526.383 906.06 531.31C892.82 551.743 875.63 567.59 854.49 578.85C848.723 581.917 842.61 584.563 836.15 586.79C821.03 591.997 805.397 594.91 789.25 595.53C761.083 596.617 732.917 596.497 704.75 595.17C676.663 593.843 652.663 593.37 632.75 593.75C606.597 594.243 577.843 596.39 546.49 600.19C527.103 602.543 507.687 604.62 488.24 606.42C477.1 607.453 465.937 607.887 454.75 607.72C449.51 607.647 444.323 607.093 439.19 606.06C425.77 603.373 417.957 595.27 415.75 581.75C414.617 574.817 415.453 568.56 418.26 562.98C420.073 559.387 422.803 556.233 426.45 553.52C430.07 550.827 433.92 548.987 438 548C444.667 546.393 452.417 545.81 461.25 546.25C468.49 546.61 474.66 546.817 479.76 546.87C486.153 546.937 492.317 546.807 498.25 546.48C509.55 545.867 520.71 544.177 531.73 541.41C542.797 538.637 555.22 536.833 569 536C590.287 534.707 607.62 534.01 621 533.91C646.093 533.71 671.177 534.163 696.25 535.27C712.117 535.977 727.95 537.14 743.75 538.76C764.417 540.88 784.757 539.237 804.77 533.83C817.637 530.357 829.4 524.377 840.06 515.89C840.967 515.17 840.84 514.81 839.68 514.81C756.733 514.743 673.463 514.723 589.87 514.75C588.623 514.75 586.55 514.8 583.65 514.9C581.57 514.967 579.49 514.98 577.41 514.94C572.103 514.833 568.997 514.783 568.09 514.79C498.563 515.35 429.037 515.44 359.51 515.06C353.857 515.027 347.19 515.05 339.51 515.13C320.563 515.317 297.81 515.273 271.25 515C238.77 514.66 182.36 514.577 102.02 514.75C101.967 514.75 101.29 514.79 99.9901 514.87C97.4634 515.023 95.8834 513.983 95.2501 511.75C94.7501 509.99 95.1201 508.667 96.3601 507.78C97.0734 507.267 98.2301 506.99 99.8301 506.95C110.27 506.703 121.183 506.643 132.57 506.77C133.69 506.783 133.813 506.44 132.94 505.74C124.593 499.06 119.567 490.573 117.86 480.28C115.24 464.493 119.723 451.337 131.31 440.81C136.85 435.783 143.37 432.533 150.87 431.06C153.617 430.52 157.89 430.25 163.69 430.25C167.97 430.25 172.26 430.25 176.56 430.25C176.743 430.25 176.919 430.177 177.048 430.048C177.112 429.984 177.163 429.908 177.198 429.824C177.232 429.74 177.25 429.651 177.25 429.56L177.16 226.79" stroke="#757675" stroke-width="2"/>
<path d="M72.1901 514.75C76.0301 515.317 78.1701 514.147 78.6101 511.24C78.8034 509.973 78.5301 508.947 77.7901 508.16C76.9767 507.293 75.8601 506.867 74.4401 506.88C67.5934 506.973 61.2201 506.79 55.3201 506.33" stroke="#757675" stroke-width="2"/>
<path d="M1025.98 510.48C1025.98 509.501 1025.59 508.563 1024.9 507.871C1024.21 507.179 1023.27 506.79 1022.29 506.79H978.17C977.191 506.79 976.253 507.179 975.561 507.871C974.869 508.563 974.48 509.501 974.48 510.48V511.06C974.48 511.545 974.575 512.024 974.761 512.472C974.946 512.92 975.218 513.327 975.561 513.669C975.903 514.012 976.31 514.284 976.758 514.469C977.206 514.655 977.685 514.75 978.17 514.75H1022.29C1022.77 514.75 1023.25 514.655 1023.7 514.469C1024.15 514.284 1024.56 514.012 1024.9 513.669C1025.24 513.327 1025.51 512.92 1025.7 512.472C1025.88 512.024 1025.98 511.545 1025.98 511.06V510.48Z" stroke="#808080" stroke-width="2"/>
<path d="M385.11 233.93C380.47 239.137 375.813 244.323 371.14 249.49C370.233 250.49 369.75 251.463 369.69 252.41C369.603 253.823 370.05 254.933 371.03 255.74C371.85 256.413 373.25 256.75 375.23 256.75C381.103 256.75 386.973 256.75 392.84 256.75C395.34 256.75 396.613 256.747 396.66 256.74C398.247 256.493 399.277 255.58 399.75 254C400.29 252.187 399.943 250.763 398.71 249.73C397.943 249.083 396.72 248.717 395.04 248.63C391.5 248.45 387.687 248.417 383.6 248.53C383.133 248.543 383.057 248.377 383.37 248.03C387.917 243.057 392.327 238.13 396.6 233.25C397.94 231.723 398.657 230.34 398.75 229.1C398.93 226.753 397.533 225.45 394.56 225.19C389.427 224.743 382.547 224.74 373.92 225.18C372 225.28 370.573 225.773 369.64 226.66C367.88 228.313 368.033 230.167 370.1 232.22C370.827 232.947 371.787 233.32 372.98 233.34L384.94 233.51C385.293 233.517 385.35 233.657 385.11 233.93Z" stroke="#757675" stroke-width="2"/>
<path d="M201.1 220.67C202.047 220.703 202.993 220.653 203.94 220.52C204.079 220.498 204.206 220.427 204.296 220.32C204.386 220.214 204.434 220.078 204.43 219.94C204.237 206.673 204.17 193.403 204.23 180.13C204.243 176.517 203.91 173.977 203.23 172.51C201.957 169.77 199.65 168.163 196.31 167.69C191.943 167.063 188.8 168.37 186.88 171.61C185.9 173.27 185.407 175.623 185.4 178.67C185.4 180.537 185.433 182.98 185.5 186C185.58 189.587 185.56 200.943 185.44 220.07C185.44 220.202 185.492 220.329 185.585 220.424C185.679 220.519 185.806 220.575 185.94 220.58C190.047 220.767 194.157 220.78 198.27 220.62C198.697 220.607 199.64 220.623 201.1 220.67Z" stroke="#585858" stroke-width="2"/>
<path d="M523.46 384.46C520.473 386.073 518.26 386.137 516.82 384.65C516.06 383.863 515.527 382.147 515.22 379.5C512.6 356.693 502.017 338.253 483.47 324.18C482.557 323.487 482.05 322.56 481.95 321.4L477.3 267C477.296 266.948 477.279 266.899 477.25 266.856C477.221 266.813 477.181 266.778 477.135 266.755C477.089 266.732 477.037 266.721 476.986 266.724C476.934 266.726 476.884 266.742 476.84 266.77L427.89 298.6C427.167 299.069 426.317 299.309 425.45 299.29C416.217 299.017 407.37 299.35 398.91 300.29" stroke="#6D6D6D" stroke-width="2"/>
<path d="M398.91 300.29C385.983 301.243 374.2 305 363.56 311.56C362.54 312.18 361.457 312.303 360.31 311.93L305.25 294.09C305.198 294.072 305.142 294.068 305.088 294.078C305.034 294.088 304.984 294.112 304.942 294.147C304.9 294.182 304.867 294.227 304.848 294.279C304.828 294.33 304.822 294.386 304.83 294.44C307.977 314.107 311.16 333.807 314.38 353.54C314.387 353.6 314.547 354.357 314.86 355.81C315.28 357.77 315.14 359.563 314.44 361.19C304.48 384.197 304.753 406.993 315.26 429.58C315.389 429.855 315.593 430.087 315.848 430.25C316.103 430.413 316.398 430.5 316.7 430.5L473.16 430.47" stroke="#808080" stroke-width="2"/>
<path d="M473.16 430.47L516.25 430.46" stroke="#6D6D6D" stroke-width="2"/>
<path d="M516.25 430.46C522.257 430.4 526.423 430.497 528.75 430.75C539.003 431.863 547.68 436.103 554.78 443.47C564.78 453.85 568.48 466.287 565.88 480.78C564.087 490.8 558.983 499.34 550.57 506.4C550.29 506.633 550.333 506.75 550.7 506.75L731.75 506.71" stroke="#808080" stroke-width="2"/>
<path d="M731.75 506.71C746.69 506.95 764.69 506.963 785.75 506.75C803.49 506.57 825.407 506.653 851.5 507C852.72 507.013 853.84 508.027 854.86 510.04" stroke="#6D6D6D" stroke-width="2"/>
<path d="M854.86 510.04C850.02 518.127 843.723 524.553 835.97 529.32C831.863 531.847 825.847 534.69 817.92 537.85C803.84 543.457 789.117 546.587 773.75 547.24C761.57 547.76 749.42 547.503 737.3 546.47C724.62 545.397 718.243 544.857 718.17 544.85C674.15 542.023 630.097 541.533 586.01 543.38C572.377 543.953 558.79 545.07 545.25 546.73C543.503 546.943 541.42 547.367 539 548C515.7 554.093 491.87 556.393 467.51 554.9C467.45 554.893 465.947 554.77 463 554.53C456.3 553.983 449.64 554.337 443.02 555.59C438.133 556.51 434.23 558 431.31 560.06C424.537 564.853 421.947 571.667 423.54 580.5" stroke="#808080" stroke-width="2"/>
<path d="M423.54 580.5C424.76 586.9 427.757 591.683 432.53 594.85C435.45 596.777 439.793 598.077 445.56 598.75C450.68 599.343 455.827 599.59 461 599.49C478.227 599.163 495.397 598.027 512.51 596.08C532.483 593.813 544.23 592.453 547.75 592C585.783 587.1 622.95 584.953 659.25 585.56C675.67 585.833 692.087 586.327 708.5 587.04C732.493 588.08 756.493 588.227 780.5 587.48C792.72 587.1 801.387 586.523 806.5 585.75C842.56 580.277 871.38 563.583 892.96 535.67C897.34 530.01 900.897 524.387 903.63 518.8C908.963 507.933 912.17 496.583 913.25 484.75C915.677 458.157 915.27 431.047 912.03 403.42C911.157 395.96 910.137 389.377 908.97 383.67C906.857 373.35 904.117 363.877 900.75 355.25C888.023 322.623 868.527 293.953 842.26 269.24C820.04 248.333 794.703 233.67 766.25 225.25C751.757 220.963 736.173 218.643 719.5 218.29" stroke="#6E6E6E" stroke-width="2"/>
<path d="M719.5 218.29C696.207 217.517 673.543 220.847 651.51 228.28C632.85 234.573 615.867 242.667 600.56 252.56C564.947 275.593 534.757 304.377 509.99 338.91C509.9 339.036 509.847 339.185 509.836 339.34C509.826 339.495 509.858 339.651 509.93 339.79C511.73 343.263 513.517 346.733 515.29 350.2C520.803 360.96 523.527 372.38 523.46 384.46" stroke="#808080" stroke-width="2"/>
<path d="M719.5 218.29L719.61 220.44C719.618 220.583 719.667 220.718 719.748 220.82C719.828 220.923 719.935 220.987 720.05 221C732.79 222.593 745.94 225.927 759.5 231C771.72 235.573 782.893 241.177 793.02 247.81C797.82 250.957 803.207 254.877 809.18 259.57C817.873 266.397 825.127 273.143 830.94 279.81C839.96 290.17 846.127 297.753 849.44 302.56C861.747 320.427 871.413 339.563 878.44 359.97C880.08 364.73 881.96 371.127 884.08 379.16C887.507 392.12 889.563 400.567 890.25 404.5C894.117 426.627 894.567 448.767 891.6 470.92C890.827 476.72 889.86 481.56 888.7 485.44C887.34 490 885.543 494.623 883.31 499.31C875.923 514.843 866.157 528.243 854.01 539.51C843.863 548.917 831.36 556.58 816.5 562.5C802.307 568.153 789.057 571.32 776.75 572C746.323 573.68 711.91 573.21 673.51 570.59C651.677 569.097 628.423 568.733 603.75 569.5C594.637 569.78 586.36 570.34 578.92 571.18C575.367 571.58 571.363 571.857 566.91 572.01C562.883 572.143 558.873 572.46 554.88 572.96C547.72 573.86 544.123 574.313 544.09 574.32C528.63 575.947 513.183 577.67 497.75 579.49C480.05 581.583 466.8 582.753 458 583C450.26 583.22 443.593 583.22 438 583C433.367 582.82 428.547 581.987 423.54 580.5" stroke="#EDEDED" stroke-width="2"/>
<path d="M854.86 510.04C860.88 495.747 862.49 481.07 859.69 466.01C859.25 463.65 858.187 459.313 856.5 453C854.287 444.713 850.94 437.327 846.46 430.84C843.34 426.327 839.27 422.463 834.25 419.25C831.883 417.737 830.237 415.593 829.31 412.82C829.297 412.78 829.153 412.053 828.88 410.64C828.587 409.113 827.747 408.11 826.36 407.63C825.053 407.17 824.267 407.62 824 408.98C823.5 411.593 823.387 414.197 823.66 416.79C824.067 420.723 824.253 423.05 824.22 423.77C824.02 428.25 823.16 432.593 821.64 436.8C820.953 438.693 819.867 440.767 818.38 443.02C817.087 444.973 815.777 446.917 814.45 448.85C812.41 451.83 810.137 454.493 807.63 456.84C799.523 464.42 790.9 471.367 781.76 477.68C780.2 478.76 778.42 479.827 776.42 480.88C774.58 481.84 772.747 482.817 770.92 483.81C769.087 484.803 766.473 486.497 763.08 488.89C759.48 491.437 755.66 493.617 751.62 495.43C748.047 497.037 745.89 498.057 745.15 498.49C743.017 499.737 741.07 501.147 739.31 502.72C738.217 503.693 736.953 504.037 735.52 503.75C733.093 503.27 731.837 504.257 731.75 506.71" stroke="#ECECEC" stroke-width="2"/>
<path d="M516.25 430.46C517.777 424.267 519.443 418.113 521.25 412C523.57 404.167 524.307 394.987 523.46 384.46" stroke="#ECECEC" stroke-width="2"/>
<path d="M473.16 430.47C474.013 426.15 474.79 421.833 475.49 417.52C476.25 412.873 476.583 408.503 476.49 404.41C476.23 392.623 474.637 380.99 471.71 369.51C468.537 357.063 462.653 346.29 454.06 337.19C442.56 325.003 429.06 315.17 413.56 307.69C406.3 304.183 401.417 301.717 398.91 300.29" stroke="#ECECEC" stroke-width="2"/>
<path d="M204.25 229.02C204.25 228.948 204.222 228.88 204.171 228.829C204.12 228.778 204.052 228.75 203.98 228.75H185.74C185.668 228.75 185.6 228.778 185.549 228.829C185.498 228.88 185.47 228.948 185.47 229.02V429.98C185.47 430.052 185.498 430.12 185.549 430.171C185.6 430.222 185.668 430.25 185.74 430.25H203.98C204.052 430.25 204.12 430.222 204.171 430.171C204.222 430.12 204.25 430.052 204.25 429.98V229.02Z" stroke="#808080" stroke-width="2"/>
<path d="M906.601 360.497C906.656 360.44 906.436 360.117 905.987 359.599C905.539 359.081 904.9 358.411 904.21 357.736C903.52 357.06 902.837 356.435 902.31 355.998C901.783 355.56 901.455 355.346 901.399 355.403C901.344 355.46 901.564 355.783 902.013 356.301C902.461 356.818 903.1 357.489 903.79 358.164C904.48 358.84 905.163 359.465 905.69 359.902C906.218 360.34 906.545 360.553 906.601 360.497Z" stroke="#383838" stroke-width="2"/>
<path d="M912.051 366.419C912.12 366.361 912.031 366.12 911.801 365.749C911.572 365.378 911.223 364.907 910.83 364.441C910.635 364.21 910.436 363.987 910.243 363.784C910.05 363.582 909.868 363.404 909.706 363.261C909.545 363.118 909.407 363.012 909.301 362.951C909.195 362.889 909.123 362.872 909.088 362.901C909.019 362.959 909.109 363.2 909.338 363.571C909.568 363.942 909.917 364.412 910.31 364.879C910.504 365.11 910.704 365.333 910.897 365.536C911.09 365.738 911.272 365.916 911.434 366.059C911.595 366.202 911.733 366.307 911.839 366.369C911.945 366.431 912.017 366.448 912.051 366.419Z" stroke="#383838" stroke-width="2"/>
<path d="M168.85 506.6L244.68 506.69C245.02 506.69 245.06 506.58 244.8 506.36C236.713 499.507 231.613 491.22 229.5 481.5C227.8 473.68 228.393 466.023 231.28 458.53C232.847 454.47 234.697 450.917 236.83 447.87C239.183 444.51 242.073 441.657 245.5 439.31C246.3 438.77 246.217 438.5 245.25 438.5L167.66 438.74" stroke="#6D6D6D" stroke-width="2"/>
<path d="M167.66 438.74C162.487 438.287 157.933 438.373 154 439C142.447 440.84 133.99 447.04 128.63 457.6C124.69 465.373 123.813 473.173 126 481C128.833 491.127 134.79 498.48 143.87 503.06C147.437 504.867 151.493 506.013 156.04 506.5C160.24 506.947 164.51 506.98 168.85 506.6" stroke="#808080" stroke-width="2"/>
<path d="M167.66 438.74C160.467 443.38 155.24 449.373 151.98 456.72C149.287 462.793 148.257 469.297 148.89 476.23C150.07 489.19 156.723 499.313 168.85 506.6" stroke="#ECECEC" stroke-width="2"/>
<path d="M273.5 438.96C262.487 438.38 253.277 442.017 245.87 449.87C240.343 455.73 237.397 462.71 237.03 470.81C236.497 482.477 240.633 491.983 249.44 499.33C254.713 503.73 260.65 506.203 267.25 506.75C271.257 507.083 276.027 507.13 281.56 506.89" stroke="#6E6E6E" stroke-width="2"/>
<path d="M281.56 506.89C286.247 506.95 290.953 507.023 295.68 507.11C300 507.19 304.71 507.183 309.81 507.09C321.123 506.877 332.433 506.917 343.74 507.21C344.26 507.223 345.257 507.18 346.73 507.08C347.537 507.027 348.543 507 349.75 507C407.043 507 464.333 507 521.62 507C526.713 507 530.747 506.567 533.72 505.7C542.14 503.26 548.613 498.507 553.14 491.44C556.873 485.62 558.76 479.323 558.8 472.55C558.853 464.09 555.817 456.51 549.69 449.81C543.21 442.737 535.063 439.13 525.25 438.99C524.517 438.977 523.353 438.92 521.76 438.82C520.78 438.76 519.61 438.737 518.25 438.75C495.683 438.983 468.35 438.983 436.25 438.75C410.71 438.563 356.46 438.633 273.5 438.96" stroke="#585858" stroke-width="2"/>
<path d="M281.56 506.89C277.647 505.17 274.077 502.96 270.85 500.26C270.797 500.22 269.623 499.34 267.33 497.62C265.357 496.133 263.913 494.257 263 491.99C261.76 488.903 261.11 487.297 261.05 487.17C256.783 478.23 256.08 469.07 258.94 459.69C261.28 451.99 265.88 445.527 272.74 440.3C272.787 440.267 273.017 440.147 273.43 439.94C273.823 439.74 273.847 439.413 273.5 438.96" stroke="#C4C4C4" stroke-width="2"/>
<path d="M715.49 266.11C716.073 266.7 716.834 267.076 717.65 267.18C736.41 269.56 753.703 275.217 769.53 284.15C781.297 290.783 791.517 298.42 800.19 307.06C801.71 308.58 803.057 309.803 804.23 310.73C805.61 311.83 806.93 312.247 808.19 311.98C809.523 311.7 810.383 310.847 810.77 309.42C811.063 308.333 810.92 307.26 810.34 306.2C809.647 304.933 808.553 303.597 807.06 302.19C785.92 282.237 761.807 268.79 734.72 261.85C732.247 261.217 727.61 260.497 720.81 259.69C719.503 259.537 718.377 259.523 717.43 259.65C716.257 259.803 715.353 260.363 714.72 261.33C713.673 262.943 713.93 264.537 715.49 266.11Z" stroke="#828281" stroke-width="2"/>
<path d="M835.44 352.09C838.953 352.517 840.62 351.387 840.44 348.7C840.367 347.567 839.817 346.053 838.79 344.16C834.623 336.48 829.823 329.207 824.39 322.34C822.783 320.313 820.95 320.09 818.89 321.67C817.063 323.063 816.803 324.723 818.11 326.65C823.443 334.497 828.513 342.513 833.32 350.7C833.544 351.079 833.851 351.402 834.219 351.643C834.586 351.884 835.004 352.037 835.44 352.09Z" stroke="#828281" stroke-width="2"/>
<path d="M318.02 318.02C318.533 318.333 319.09 318.51 319.69 318.55C324.743 318.89 329.55 320.297 334.11 322.77C337.103 324.39 339.59 326.373 341.57 328.72C343.67 331.2 345.317 333.98 346.51 337.06C346.669 337.464 346.939 337.814 347.288 338.069C347.637 338.324 348.05 338.474 348.48 338.5C352.14 338.72 353.953 337.523 353.92 334.91C353.9 333.623 353.33 331.98 352.21 329.98C345.477 317.933 334.907 311.497 320.5 310.67C318.707 310.57 317.367 311.123 316.48 312.33C315.78 313.283 315.57 314.287 315.85 315.34C316.123 316.407 316.847 317.3 318.02 318.02Z" stroke="#808080" stroke-width="2"/>
<path d="M434.2 378.46C437.147 380.993 440.23 382.623 443.45 383.35C446.65 384.07 449.97 383.78 453.41 382.48C459.443 380.207 463.14 375.63 464.5 368.75C465.213 365.13 464.04 363.21 460.98 362.99C459.893 362.91 458.977 363.173 458.23 363.78C457.397 364.46 456.863 365.343 456.63 366.43C456.203 368.443 455.983 369.463 455.97 369.49C454.963 371.837 453.377 373.57 451.21 374.69C449.283 375.683 447.247 376.013 445.1 375.68C442.74 375.313 440.853 374.19 439.44 372.31C438.473 371.037 437.4 370.203 436.22 369.81C434.953 369.397 433.777 369.667 432.69 370.62C431.243 371.893 430.977 373.5 431.89 375.44C432.443 376.613 433.213 377.62 434.2 378.46Z" stroke="#808080" stroke-width="2"/>
<path d="M367.69 395.31C369.79 396.817 371.973 397.83 374.24 398.35C376.353 398.83 378.697 398.81 381.27 398.29C388.983 396.743 393.687 391.807 395.38 383.48C395.887 380.98 395.197 379.3 393.31 378.44C391.61 377.66 390.2 377.83 389.08 378.95C388.547 379.483 388.063 380.617 387.63 382.35C386.117 388.383 382.22 391.023 375.94 390.27C374.633 390.117 373.563 389.76 372.73 389.2C371.843 388.607 370.997 387.81 370.19 386.81C366.97 382.823 364.31 382.983 362.21 387.29C362.069 387.585 362.048 387.919 362.15 388.22C363.123 391 364.97 393.363 367.69 395.31Z" stroke="#808080" stroke-width="2"/>
<path d="M410.69 418.81C413.617 421.477 416 423.503 417.84 424.89C419.04 425.79 420.133 426.137 421.12 425.93C422.387 425.663 423.367 424.79 424.06 423.31C425.54 420.157 426.957 416.973 428.31 413.76C429.11 411.853 429.277 410.297 428.81 409.09C428.017 407.05 426.167 406.37 423.26 407.05C419.213 407.997 415.177 408.973 411.15 409.98C409.99 410.267 409.15 410.617 408.63 411.03C407.83 411.677 407.33 412.493 407.13 413.48C406.917 414.533 407.273 415.527 408.2 416.46C408.82 417.08 409.65 417.863 410.69 418.81Z" stroke="#808080" stroke-width="2"/>
<path d="M303.5 472.91C303.5 467.767 301.457 462.836 297.821 459.199C294.184 455.563 289.253 453.52 284.11 453.52C278.967 453.52 274.036 455.563 270.399 459.199C266.763 462.836 264.72 467.767 264.72 472.91C264.72 478.053 266.763 482.984 270.399 486.621C274.036 490.257 278.967 492.3 284.11 492.3C289.253 492.3 294.184 490.257 297.821 486.621C301.457 482.984 303.5 478.053 303.5 472.91Z" stroke="#8E8E8E" stroke-width="2"/>
<path d="M391.62 473.02C391.62 470.872 390.767 468.811 389.248 467.292C387.729 465.773 385.668 464.92 383.52 464.92C381.372 464.92 379.312 465.773 377.792 467.292C376.273 468.811 375.42 470.872 375.42 473.02C375.42 474.084 375.63 475.137 376.037 476.12C376.444 477.102 377.04 477.995 377.792 478.747C378.545 479.5 379.438 480.096 380.42 480.503C381.403 480.91 382.456 481.12 383.52 481.12C384.584 481.12 385.637 480.91 386.62 480.503C387.603 480.096 388.495 479.5 389.248 478.747C390 477.995 390.596 477.102 391.003 476.12C391.411 475.137 391.62 474.084 391.62 473.02Z" stroke="#8E8E8E" stroke-width="2"/>
<path d="M426.911 481.082C427.944 480.97 428.944 480.649 429.854 480.138C430.763 479.626 431.565 478.935 432.214 478.102C432.862 477.269 433.344 476.312 433.632 475.285C433.921 474.258 434.009 473.181 433.894 472.116C433.66 469.964 432.607 467.991 430.967 466.63C429.327 465.268 427.234 464.631 425.149 464.858C424.116 464.97 423.116 465.291 422.206 465.802C421.297 466.313 420.495 467.005 419.846 467.838C419.198 468.67 418.716 469.628 418.428 470.655C418.139 471.682 418.051 472.759 418.166 473.824C418.4 475.976 419.453 477.949 421.093 479.31C422.733 480.671 424.826 481.309 426.911 481.082Z" stroke="#8E8E8E" stroke-width="2"/>
<path d="M476.69 473.01C476.69 470.856 475.835 468.791 474.312 467.268C472.789 465.745 470.724 464.89 468.57 464.89C467.504 464.89 466.448 465.1 465.463 465.508C464.477 465.916 463.582 466.514 462.828 467.268C462.074 468.022 461.476 468.917 461.068 469.902C460.66 470.888 460.45 471.944 460.45 473.01C460.45 474.076 460.66 475.132 461.068 476.117C461.476 477.102 462.074 477.998 462.828 478.752C463.582 479.506 464.477 480.104 465.463 480.512C466.448 480.92 467.504 481.13 468.57 481.13C470.724 481.13 472.789 480.274 474.312 478.752C475.835 477.229 476.69 475.163 476.69 473.01Z" stroke="#8E8E8E" stroke-width="2"/>
<path d="M519.44 473.07C519.44 470.922 518.587 468.861 517.068 467.342C515.549 465.823 513.488 464.97 511.34 464.97C509.192 464.97 507.131 465.823 505.612 467.342C504.093 468.861 503.24 470.922 503.24 473.07C503.24 475.218 504.093 477.279 505.612 478.798C507.131 480.317 509.192 481.17 511.34 481.17C513.488 481.17 515.549 480.317 517.068 478.798C518.587 477.279 519.44 475.218 519.44 473.07Z" stroke="#8E8E8E" stroke-width="2"/>
<path d="M295.05 472.89C295.05 470.007 293.905 467.242 291.866 465.204C289.828 463.165 287.063 462.02 284.18 462.02C281.297 462.02 278.532 463.165 276.494 465.204C274.455 467.242 273.31 470.007 273.31 472.89C273.31 475.773 274.455 478.538 276.494 480.576C278.532 482.615 281.297 483.76 284.18 483.76C287.063 483.76 289.828 482.615 291.866 480.576C293.905 478.538 295.05 475.773 295.05 472.89Z" stroke="#B7B7B7" stroke-width="2"/>
<path d="M958.43 506.72L917.75 506.75C917.69 506.75 917.631 506.737 917.577 506.711C917.523 506.685 917.475 506.646 917.439 506.599C917.402 506.552 917.377 506.496 917.365 506.438C917.353 506.379 917.355 506.318 917.37 506.26C919.797 496.893 921.373 487.56 922.1 478.26C923.807 456.513 923.507 434.823 921.2 413.19C920.327 405.003 919.533 398.38 918.82 393.32C916.887 379.54 913.78 366.85 909.5 355.25C901.067 332.377 888.717 310.56 872.45 289.8C858.17 271.573 841.453 255.96 822.3 242.96C801.667 228.96 779.15 219.307 754.75 214C721.603 206.793 688.183 208.37 654.49 218.73C635.903 224.443 618.27 232.29 601.59 242.27C591.677 248.197 582.163 254.707 573.05 261.8C546.997 282.1 524.163 305.533 504.55 332.1C504.513 332.148 504.467 332.187 504.413 332.215C504.36 332.243 504.301 332.259 504.241 332.26C504.181 332.262 504.122 332.251 504.069 332.226C504.015 332.202 503.967 332.166 503.93 332.12C499.763 327.24 495.167 322.803 490.14 318.81C490.017 318.712 489.915 318.591 489.841 318.453C489.767 318.316 489.723 318.165 489.71 318.01C488.037 298.537 486.43 279.053 484.89 259.56C484.67 256.747 483.48 255.357 481.32 255.39C480.24 255.403 478.837 255.96 477.11 257.06C459.97 268 442.87 279 425.81 290.06C424.683 290.793 423.08 291.107 421 291C411.087 290.507 400.337 291.333 388.75 293.48C379.363 295.22 370.323 298.407 361.63 303.04C361.434 303.147 361.217 303.213 360.992 303.234C360.767 303.254 360.538 303.229 360.32 303.16C344.46 298.24 329 293.217 313.94 288.09C312.207 287.497 310.177 286.887 307.85 286.26C305.81 285.7 303.777 285.107 301.75 284.48C300.483 284.08 299.46 283.96 298.68 284.12C297.38 284.387 296.513 285.087 296.08 286.22C295.773 287.013 295.773 288.37 296.08 290.29C299.633 312.663 303.057 334.743 306.35 356.53C306.49 357.423 306.4 358.29 306.08 359.13C297.007 383.163 297.063 406.777 306.25 429.97C306.272 430.021 306.28 430.076 306.275 430.131C306.27 430.186 306.251 430.239 306.22 430.284C306.19 430.33 306.148 430.367 306.099 430.393C306.05 430.418 305.995 430.431 305.94 430.43L213.15 430.25C212.923 430.25 212.704 430.161 212.542 430.002C212.379 429.843 212.285 429.627 212.28 429.4C212.187 425.227 212.187 421.25 212.28 417.47C212.42 411.503 212.483 407.527 212.47 405.54C212.19 340.86 212.13 276.18 212.29 211.5C213.097 212.14 214.187 212.243 215.56 211.81C233.007 206.357 251.957 201.293 272.41 196.62C272.457 196.607 277.997 195.263 289.03 192.59C295.617 190.997 302.043 189.737 308.31 188.81C324.997 186.35 342.15 184.59 359.77 183.53C364.95 183.217 371.597 182.757 379.71 182.15C390.957 181.317 402.217 180.893 413.49 180.88C414.337 182.76 415.757 183.703 417.75 183.71C427.817 183.763 437.88 183.76 447.94 183.7C449.567 183.687 450.693 183.487 451.32 183.1C452.46 182.407 452.95 181.207 452.79 179.5C453.777 179.567 454.28 179.253 454.3 178.56C454.306 178.362 454.383 178.174 454.517 178.029C454.652 177.883 454.834 177.792 455.03 177.77C474.03 175.703 492.163 173.413 509.43 170.9C530.023 167.907 550.337 163.61 570.37 158.01C610.397 146.817 646.517 128.133 678.73 101.96C682.63 98.7933 686.523 95.6233 690.41 92.45C690.443 92.4233 694.087 89.37 701.34 83.29C714.42 72.3233 728.393 62.6633 743.26 54.3099C748.953 51.1099 754.92 48.1466 761.16 45.42C773.013 40.2466 784.543 36.1066 795.75 32.9999C806.737 29.9533 818.733 28.0833 831.74 27.39C854.08 26.1966 875.72 29.4433 896.66 37.13C916.2 44.2966 933.91 54.4566 949.79 67.6099C954.297 71.3433 959.28 75.7733 964.74 80.8999C979.573 94.8399 992.847 110.603 1004.56 128.19C1009.82 136.083 1014.38 143.89 1018.24 151.61C1021.13 157.403 1023.46 162.477 1025.22 166.83C1027.25 171.85 1029.01 177.157 1030.5 182.75C1031.48 186.437 1031.96 190.047 1031.95 193.58C1031.93 198.393 1031.92 200.84 1031.92 200.92C1032.33 210.467 1032.44 219.077 1032.25 226.75C1032.18 229.45 1032.54 231.957 1033.33 234.27C1034.41 237.457 1034.99 239.343 1035.06 239.93C1035.31 241.943 1035.29 244.05 1035 246.25C1034.31 251.65 1033.14 256.79 1031.51 261.67C1029.12 268.843 1027.91 272.44 1027.9 272.46C1026.13 278.54 1024.39 284.63 1022.68 290.73C1021.51 294.877 1020.09 298.92 1018.4 302.86C1017.05 306.013 1015.06 309.8 1012.41 314.22C1007.78 321.96 1003.83 328.157 1000.56 332.81C995.647 339.81 990.773 345.687 985.94 350.44C982.707 353.613 980.25 356.573 978.57 359.32C974.483 365.987 971.247 373 968.86 380.36C967.727 383.833 965.973 390.26 963.6 399.64C960.06 413.64 957.943 427.26 957.25 440.5C956.19 460.867 956.583 482.94 958.43 506.72ZM385.11 233.93C380.47 239.137 375.813 244.323 371.14 249.49C370.233 250.49 369.75 251.463 369.69 252.41C369.603 253.823 370.05 254.933 371.03 255.74C371.85 256.413 373.25 256.75 375.23 256.75C381.103 256.75 386.973 256.75 392.84 256.75C395.34 256.75 396.613 256.747 396.66 256.74C398.247 256.493 399.277 255.58 399.75 254C400.29 252.187 399.943 250.763 398.71 249.73C397.943 249.083 396.72 248.717 395.04 248.63C391.5 248.45 387.687 248.417 383.6 248.53C383.133 248.543 383.057 248.377 383.37 248.03C387.917 243.057 392.327 238.13 396.6 233.25C397.94 231.723 398.657 230.34 398.75 229.1C398.93 226.753 397.533 225.45 394.56 225.19C389.427 224.743 382.547 224.74 373.92 225.18C372 225.28 370.573 225.773 369.64 226.66C367.88 228.313 368.033 230.167 370.1 232.22C370.827 232.947 371.787 233.32 372.98 233.34L384.94 233.51C385.293 233.517 385.35 233.657 385.11 233.93Z" fill="#E8EAE9"/>
<path d="M452.79 179.5C452.95 181.207 452.46 182.407 451.32 183.1C450.693 183.487 449.567 183.687 447.94 183.7C437.88 183.76 427.817 183.763 417.75 183.71C415.757 183.703 414.337 182.76 413.49 180.88C413.557 179.04 414.457 177.143 416.19 175.19C423.363 167.11 430.633 158.813 438 150.3C438.787 149.4 438.583 149 437.39 149.1C429.637 149.787 422.423 150.003 415.75 149.75C412.897 149.643 409.393 148.413 405.24 146.06C404.947 145.893 404.947 145.723 405.24 145.55C407.293 144.357 410.047 143.59 413.5 143.25C424.52 142.157 433.417 141.573 440.19 141.5C440.263 141.5 441.793 141.4 444.78 141.2C446.547 141.08 448.12 141.263 449.5 141.75C451.627 142.503 452.357 144.067 451.69 146.44C451.45 147.3 450.33 148.847 448.33 151.08C441.083 159.18 433.907 167.343 426.8 175.57C426.547 175.87 426.617 176.013 427.01 176C434.15 175.733 441.293 175.673 448.44 175.82C450.953 175.867 452.403 177.093 452.79 179.5Z" fill="#010101"/>
<path d="M212.29 211.5C212.13 276.18 212.19 340.86 212.47 405.54C212.483 407.527 212.42 411.503 212.28 417.47C212.187 421.25 212.187 425.227 212.28 429.4C212.285 429.627 212.379 429.843 212.542 430.002C212.704 430.161 212.923 430.25 213.15 430.25L305.94 430.43C305.995 430.431 306.05 430.418 306.099 430.393C306.148 430.367 306.189 430.33 306.22 430.284C306.251 430.239 306.27 430.186 306.275 430.131C306.28 430.076 306.272 430.021 306.25 429.97C297.063 406.777 297.007 383.163 306.08 359.13C306.4 358.29 306.49 357.423 306.35 356.53C303.057 334.743 299.633 312.663 296.08 290.29C295.773 288.37 295.773 287.013 296.08 286.22C296.513 285.087 297.38 284.387 298.68 284.12C299.46 283.96 300.483 284.08 301.75 284.48C303.777 285.107 305.81 285.7 307.85 286.26C310.177 286.887 312.207 287.497 313.94 288.09C329 293.217 344.46 298.24 360.32 303.16C360.538 303.229 360.767 303.254 360.992 303.234C361.217 303.213 361.434 303.147 361.63 303.04C370.323 298.407 379.363 295.22 388.75 293.48C400.337 291.333 411.087 290.507 421 291C423.08 291.107 424.683 290.793 425.81 290.06C442.87 279 459.97 268 477.11 257.06C478.837 255.96 480.24 255.403 481.32 255.39C483.48 255.357 484.67 256.747 484.89 259.56C486.43 279.053 488.037 298.537 489.71 318.01C489.722 318.165 489.767 318.315 489.841 318.453C489.915 318.591 490.017 318.712 490.14 318.81C495.167 322.803 499.763 327.24 503.93 332.12C503.967 332.166 504.015 332.202 504.068 332.226C504.122 332.251 504.181 332.262 504.241 332.26C504.301 332.258 504.359 332.243 504.413 332.215C504.466 332.187 504.513 332.148 504.55 332.1C524.163 305.533 546.997 282.1 573.05 261.8C582.163 254.707 591.677 248.197 601.59 242.27C618.27 232.29 635.903 224.443 654.49 218.73C688.183 208.37 721.603 206.793 754.75 214C779.15 219.307 801.667 228.96 822.3 242.96C841.453 255.96 858.17 271.573 872.45 289.8C888.717 310.56 901.067 332.377 909.5 355.25C913.78 366.85 916.887 379.54 918.82 393.32C919.533 398.38 920.327 405.003 921.2 413.19C923.507 434.823 923.807 456.513 922.1 478.26C921.373 487.56 919.797 496.893 917.37 506.26C917.355 506.318 917.353 506.379 917.365 506.438C917.377 506.496 917.402 506.552 917.439 506.599C917.475 506.646 917.523 506.685 917.577 506.711C917.631 506.737 917.69 506.75 917.75 506.75L958.43 506.72C960.737 506.76 962.157 507.69 962.69 509.51C963.083 510.85 962.867 512.06 962.04 513.14C961.133 514.34 959.84 514.877 958.16 514.75H914.8C914.65 514.751 914.503 514.797 914.38 514.882C914.257 514.968 914.163 515.089 914.11 515.23C911.93 521.023 909.247 526.383 906.06 531.31C892.82 551.743 875.63 567.59 854.49 578.85C848.723 581.917 842.61 584.563 836.15 586.79C821.03 591.997 805.397 594.91 789.25 595.53C761.083 596.617 732.917 596.497 704.75 595.17C676.663 593.843 652.663 593.37 632.75 593.75C606.597 594.243 577.843 596.39 546.49 600.19C527.103 602.543 507.687 604.62 488.24 606.42C477.1 607.453 465.937 607.887 454.75 607.72C449.51 607.647 444.323 607.093 439.19 606.06C425.77 603.373 417.957 595.27 415.75 581.75C414.617 574.817 415.453 568.56 418.26 562.98C420.073 559.387 422.803 556.233 426.45 553.52C430.07 550.827 433.92 548.987 438 548C444.667 546.393 452.417 545.81 461.25 546.25C468.49 546.61 474.66 546.817 479.76 546.87C486.153 546.937 492.317 546.807 498.25 546.48C509.55 545.867 520.71 544.177 531.73 541.41C542.797 538.637 555.22 536.833 569 536C590.287 534.707 607.62 534.01 621 533.91C646.093 533.71 671.177 534.163 696.25 535.27C712.117 535.977 727.95 537.14 743.75 538.76C764.417 540.88 784.757 539.237 804.77 533.83C817.637 530.357 829.4 524.377 840.06 515.89C840.967 515.17 840.84 514.81 839.68 514.81C756.733 514.743 673.463 514.723 589.87 514.75C588.623 514.75 586.55 514.8 583.65 514.9C581.57 514.967 579.49 514.98 577.41 514.94C572.103 514.833 568.997 514.783 568.09 514.79C498.563 515.35 429.037 515.44 359.51 515.06C353.857 515.027 347.19 515.05 339.51 515.13C320.563 515.317 297.81 515.273 271.25 515C238.77 514.66 182.36 514.577 102.02 514.75C101.967 514.75 101.29 514.79 99.9899 514.87C97.4633 515.023 95.8833 513.983 95.2499 511.75C94.7499 509.99 95.1199 508.667 96.3599 507.78C97.0733 507.267 98.2299 506.99 99.8299 506.95C110.27 506.703 121.183 506.643 132.57 506.77C133.69 506.783 133.813 506.44 132.94 505.74C124.593 499.06 119.567 490.573 117.86 480.28C115.24 464.493 119.723 451.337 131.31 440.81C136.85 435.783 143.37 432.533 150.87 431.06C153.617 430.52 157.89 430.25 163.69 430.25C167.97 430.25 172.26 430.25 176.56 430.25C176.743 430.25 176.918 430.177 177.048 430.048C177.112 429.984 177.163 429.908 177.197 429.824C177.232 429.74 177.25 429.651 177.25 429.56L177.16 226.79C177.253 211.343 177.287 195.75 177.26 180.01C177.253 175.637 177.703 172.363 178.61 170.19C179.837 167.27 181.697 164.833 184.19 162.88C186.59 161 189.31 159.833 192.35 159.38C197.403 158.62 202.017 159.93 206.19 163.31C208.27 164.997 209.837 167.09 210.89 169.59C211.623 171.33 212.02 173.833 212.08 177.1C212.287 188.567 212.357 200.033 212.29 211.5ZM201.1 220.67C202.047 220.703 202.993 220.653 203.94 220.52C204.079 220.498 204.206 220.427 204.296 220.32C204.386 220.214 204.434 220.078 204.43 219.94C204.237 206.673 204.17 193.403 204.23 180.13C204.243 176.517 203.91 173.977 203.23 172.51C201.957 169.77 199.65 168.163 196.31 167.69C191.943 167.063 188.8 168.37 186.88 171.61C185.9 173.27 185.407 175.623 185.4 178.67C185.4 180.537 185.433 182.98 185.5 186C185.58 189.587 185.56 200.943 185.44 220.07C185.44 220.202 185.492 220.329 185.585 220.424C185.678 220.519 185.806 220.575 185.94 220.58C190.047 220.767 194.157 220.78 198.27 220.62C198.697 220.607 199.64 220.623 201.1 220.67ZM523.46 384.46C520.473 386.073 518.26 386.137 516.82 384.65C516.06 383.863 515.527 382.147 515.22 379.5C512.6 356.693 502.017 338.253 483.47 324.18C482.557 323.487 482.05 322.56 481.95 321.4L477.3 267C477.296 266.948 477.279 266.899 477.25 266.856C477.221 266.813 477.181 266.778 477.135 266.755C477.089 266.732 477.037 266.721 476.985 266.723C476.934 266.726 476.884 266.742 476.84 266.77L427.89 298.6C427.167 299.069 426.317 299.309 425.45 299.29C416.217 299.017 407.37 299.35 398.91 300.29C385.983 301.243 374.2 305 363.56 311.56C362.54 312.18 361.457 312.303 360.31 311.93L305.25 294.09C305.198 294.072 305.142 294.068 305.088 294.078C305.034 294.088 304.984 294.112 304.942 294.147C304.899 294.182 304.867 294.227 304.847 294.279C304.828 294.33 304.822 294.386 304.83 294.44C307.977 314.107 311.16 333.807 314.38 353.54C314.387 353.6 314.547 354.357 314.86 355.81C315.28 357.77 315.14 359.563 314.44 361.19C304.48 384.197 304.753 406.993 315.26 429.58C315.389 429.855 315.593 430.087 315.848 430.25C316.103 430.413 316.398 430.5 316.7 430.5L473.16 430.47L516.25 430.46C522.257 430.4 526.423 430.497 528.75 430.75C539.003 431.863 547.68 436.103 554.78 443.47C564.78 453.85 568.48 466.287 565.88 480.78C564.087 490.8 558.983 499.34 550.57 506.4C550.29 506.633 550.333 506.75 550.7 506.75L731.75 506.71C746.69 506.95 764.69 506.963 785.75 506.75C803.49 506.57 825.407 506.653 851.5 507C852.72 507.013 853.84 508.027 854.86 510.04C850.02 518.127 843.723 524.553 835.97 529.32C831.863 531.847 825.847 534.69 817.92 537.85C803.84 543.457 789.117 546.587 773.75 547.24C761.57 547.76 749.42 547.503 737.3 546.47C724.62 545.397 718.243 544.857 718.17 544.85C674.15 542.023 630.097 541.533 586.01 543.38C572.377 543.953 558.79 545.07 545.25 546.73C543.503 546.943 541.42 547.367 539 548C515.7 554.093 491.87 556.393 467.51 554.9C467.45 554.893 465.947 554.77 463 554.53C456.3 553.983 449.64 554.337 443.02 555.59C438.133 556.51 434.23 558 431.31 560.06C424.537 564.853 421.947 571.667 423.54 580.5C424.76 586.9 427.757 591.683 432.53 594.85C435.45 596.777 439.793 598.077 445.56 598.75C450.68 599.343 455.827 599.59 461 599.49C478.227 599.163 495.397 598.027 512.51 596.08C532.483 593.813 544.23 592.453 547.75 592C585.783 587.1 622.95 584.953 659.25 585.56C675.67 585.833 692.087 586.327 708.5 587.04C732.493 588.08 756.493 588.227 780.5 587.48C792.72 587.1 801.387 586.523 806.5 585.75C842.56 580.277 871.38 563.583 892.96 535.67C897.34 530.01 900.897 524.387 903.63 518.8C908.963 507.933 912.17 496.583 913.25 484.75C915.677 458.157 915.27 431.047 912.03 403.42C911.157 395.96 910.137 389.377 908.97 383.67C906.857 373.35 904.117 363.877 900.75 355.25C888.023 322.623 868.527 293.953 842.26 269.24C820.04 248.333 794.703 233.67 766.25 225.25C751.757 220.963 736.173 218.643 719.5 218.29C696.207 217.517 673.543 220.847 651.51 228.28C632.85 234.573 615.867 242.667 600.56 252.56C564.947 275.593 534.757 304.377 509.99 338.91C509.9 339.036 509.847 339.185 509.836 339.34C509.826 339.495 509.858 339.651 509.93 339.79C511.73 343.263 513.517 346.733 515.29 350.2C520.803 360.96 523.527 372.38 523.46 384.46ZM204.25 229.02C204.25 228.948 204.222 228.88 204.171 228.829C204.12 228.778 204.052 228.75 203.98 228.75H185.74C185.668 228.75 185.6 228.778 185.549 228.829C185.498 228.88 185.47 228.948 185.47 229.02V429.98C185.47 430.052 185.498 430.12 185.549 430.171C185.6 430.221 185.668 430.25 185.74 430.25H203.98C204.052 430.25 204.12 430.221 204.171 430.171C204.222 430.12 204.25 430.052 204.25 429.98V229.02ZM906.601 360.497C906.656 360.44 906.436 360.117 905.987 359.599C905.539 359.081 904.9 358.411 904.21 357.736C903.52 357.06 902.837 356.435 902.31 355.998C901.782 355.56 901.455 355.346 901.399 355.403C901.344 355.46 901.564 355.783 902.013 356.301C902.461 356.819 903.1 357.489 903.79 358.164C904.48 358.84 905.163 359.465 905.69 359.902C906.217 360.34 906.545 360.554 906.601 360.497ZM912.051 366.419C912.12 366.361 912.031 366.12 911.801 365.749C911.572 365.378 911.223 364.907 910.83 364.441C910.635 364.21 910.436 363.987 910.243 363.784C910.05 363.582 909.868 363.404 909.706 363.261C909.545 363.118 909.407 363.012 909.301 362.951C909.195 362.889 909.123 362.872 909.088 362.901C909.019 362.959 909.109 363.2 909.338 363.571C909.567 363.942 909.917 364.412 910.31 364.879C910.504 365.11 910.704 365.333 910.897 365.536C911.089 365.738 911.272 365.916 911.434 366.059C911.595 366.202 911.733 366.307 911.839 366.369C911.945 366.431 912.017 366.448 912.051 366.419ZM168.85 506.6L244.68 506.69C245.02 506.69 245.06 506.58 244.8 506.36C236.713 499.507 231.613 491.22 229.5 481.5C227.8 473.68 228.393 466.023 231.28 458.53C232.847 454.47 234.697 450.917 236.83 447.87C239.183 444.51 242.073 441.657 245.5 439.31C246.3 438.77 246.217 438.5 245.25 438.5L167.66 438.74C162.487 438.287 157.933 438.373 154 439C142.447 440.84 133.99 447.04 128.63 457.6C124.69 465.373 123.813 473.173 126 481C128.833 491.127 134.79 498.48 143.87 503.06C147.437 504.867 151.493 506.013 156.04 506.5C160.24 506.947 164.51 506.98 168.85 506.6ZM273.5 438.96C262.487 438.38 253.277 442.017 245.87 449.87C240.343 455.73 237.397 462.71 237.03 470.81C236.497 482.477 240.633 491.983 249.44 499.33C254.713 503.73 260.65 506.203 267.25 506.75C271.257 507.083 276.027 507.13 281.56 506.89C286.247 506.95 290.953 507.023 295.68 507.11C300 507.19 304.71 507.183 309.81 507.09C321.123 506.877 332.433 506.917 343.74 507.21C344.26 507.223 345.257 507.18 346.73 507.08C347.537 507.027 348.543 507 349.75 507C407.043 507 464.333 507 521.62 507C526.713 507 530.747 506.567 533.72 505.7C542.14 503.26 548.613 498.507 553.14 491.44C556.873 485.62 558.76 479.323 558.8 472.55C558.853 464.09 555.817 456.51 549.69 449.81C543.21 442.737 535.063 439.13 525.25 438.99C524.517 438.977 523.353 438.92 521.76 438.82C520.78 438.76 519.61 438.737 518.25 438.75C495.683 438.983 468.35 438.983 436.25 438.75C410.71 438.563 356.46 438.633 273.5 438.96Z" fill="#010101"/>
<path d="M198.27 220.62C194.157 220.78 190.047 220.767 185.94 220.58C185.806 220.575 185.679 220.519 185.585 220.424C185.492 220.329 185.44 220.202 185.44 220.07C185.56 200.943 185.58 189.587 185.5 186C185.433 182.98 185.4 180.537 185.4 178.67C185.407 175.623 185.9 173.27 186.88 171.61C188.8 168.37 191.943 167.063 196.31 167.69C199.65 168.163 201.957 169.77 203.23 172.51C203.91 173.977 204.243 176.517 204.23 180.13C204.17 193.403 204.237 206.673 204.43 219.94C204.434 220.078 204.386 220.214 204.296 220.32C204.206 220.427 204.079 220.498 203.94 220.52C202.993 220.653 202.047 220.703 201.1 220.67C199.64 220.623 198.697 220.607 198.27 220.62Z" fill="#AEAEAE"/>
<path d="M719.5 218.29L719.61 220.44C719.618 220.583 719.667 220.718 719.747 220.82C719.828 220.923 719.935 220.986 720.05 221C732.79 222.593 745.94 225.927 759.5 231C771.72 235.573 782.893 241.177 793.02 247.81C797.82 250.957 803.207 254.877 809.18 259.57C817.873 266.397 825.127 273.143 830.94 279.81C839.96 290.17 846.127 297.753 849.44 302.56C861.747 320.427 871.413 339.563 878.44 359.97C880.08 364.73 881.96 371.127 884.08 379.16C887.507 392.12 889.563 400.567 890.25 404.5C894.117 426.627 894.567 448.767 891.6 470.92C890.827 476.72 889.86 481.56 888.7 485.44C887.34 490 885.543 494.623 883.31 499.31C875.923 514.843 866.157 528.243 854.01 539.51C843.863 548.917 831.36 556.58 816.5 562.5C802.307 568.153 789.057 571.32 776.75 572C746.323 573.68 711.91 573.21 673.51 570.59C651.677 569.097 628.423 568.733 603.75 569.5C594.637 569.78 586.36 570.34 578.92 571.18C575.367 571.58 571.363 571.857 566.91 572.01C562.883 572.143 558.873 572.46 554.88 572.96C547.72 573.86 544.123 574.313 544.09 574.32C528.63 575.947 513.183 577.67 497.75 579.49C480.05 581.583 466.8 582.753 458 583C450.26 583.22 443.593 583.22 438 583C433.367 582.82 428.547 581.987 423.54 580.5C421.947 571.667 424.537 564.853 431.31 560.06C434.23 558 438.133 556.51 443.02 555.59C449.64 554.337 456.3 553.983 463 554.53C465.947 554.77 467.45 554.893 467.51 554.9C491.87 556.393 515.7 554.093 539 548C541.42 547.367 543.503 546.943 545.25 546.73C558.79 545.07 572.377 543.953 586.01 543.38C630.097 541.533 674.15 542.023 718.17 544.85C718.243 544.857 724.62 545.397 737.3 546.47C749.42 547.503 761.57 547.76 773.75 547.24C789.117 546.587 803.84 543.457 817.92 537.85C825.847 534.69 831.863 531.847 835.97 529.32C843.723 524.553 850.02 518.127 854.86 510.04C860.88 495.747 862.49 481.07 859.69 466.01C859.25 463.65 858.187 459.313 856.5 453C854.287 444.713 850.94 437.327 846.46 430.84C843.34 426.327 839.27 422.463 834.25 419.25C831.883 417.737 830.237 415.593 829.31 412.82C829.297 412.78 829.153 412.053 828.88 410.64C828.587 409.113 827.747 408.11 826.36 407.63C825.053 407.17 824.267 407.62 824 408.98C823.5 411.593 823.387 414.197 823.66 416.79C824.067 420.723 824.253 423.05 824.22 423.77C824.02 428.25 823.16 432.593 821.64 436.8C820.953 438.693 819.867 440.767 818.38 443.02C817.087 444.973 815.777 446.917 814.45 448.85C812.41 451.83 810.137 454.493 807.63 456.84C799.523 464.42 790.9 471.367 781.76 477.68C780.2 478.76 778.42 479.827 776.42 480.88C774.58 481.84 772.747 482.817 770.92 483.81C769.087 484.803 766.473 486.497 763.08 488.89C759.48 491.437 755.66 493.617 751.62 495.43C748.047 497.037 745.89 498.057 745.15 498.49C743.017 499.737 741.07 501.147 739.31 502.72C738.217 503.693 736.953 504.037 735.52 503.75C733.093 503.27 731.837 504.257 731.75 506.71L550.7 506.75C550.333 506.75 550.29 506.633 550.57 506.4C558.983 499.34 564.087 490.8 565.88 480.78C568.48 466.287 564.78 453.85 554.78 443.47C547.68 436.103 539.003 431.863 528.75 430.75C526.423 430.497 522.257 430.4 516.25 430.46C517.777 424.267 519.443 418.113 521.25 412C523.57 404.167 524.307 394.987 523.46 384.46C523.527 372.38 520.803 360.96 515.29 350.2C513.517 346.733 511.73 343.263 509.93 339.79C509.858 339.651 509.826 339.495 509.836 339.34C509.847 339.185 509.9 339.036 509.99 338.91C534.757 304.377 564.947 275.593 600.56 252.56C615.867 242.667 632.85 234.573 651.51 228.28C673.543 220.847 696.207 217.517 719.5 218.29ZM715.49 266.11C716.073 266.7 716.834 267.076 717.65 267.18C736.41 269.56 753.703 275.217 769.53 284.15C781.297 290.783 791.517 298.42 800.19 307.06C801.71 308.58 803.057 309.803 804.23 310.73C805.61 311.83 806.93 312.247 808.19 311.98C809.523 311.7 810.383 310.847 810.77 309.42C811.063 308.333 810.92 307.26 810.34 306.2C809.647 304.933 808.553 303.597 807.06 302.19C785.92 282.237 761.807 268.79 734.72 261.85C732.247 261.217 727.61 260.497 720.81 259.69C719.503 259.537 718.377 259.523 717.43 259.65C716.257 259.803 715.353 260.363 714.72 261.33C713.673 262.943 713.93 264.537 715.49 266.11ZM835.44 352.09C838.953 352.517 840.62 351.387 840.44 348.7C840.367 347.567 839.817 346.053 838.79 344.16C834.623 336.48 829.823 329.207 824.39 322.34C822.783 320.313 820.95 320.09 818.89 321.67C817.063 323.063 816.803 324.723 818.11 326.65C823.443 334.497 828.513 342.513 833.32 350.7C833.544 351.079 833.851 351.402 834.219 351.643C834.586 351.884 835.004 352.037 835.44 352.09Z" fill="white"/>
<path d="M719.5 218.29C736.173 218.643 751.757 220.963 766.25 225.25C794.703 233.67 820.04 248.333 842.26 269.24C868.527 293.953 888.023 322.623 900.75 355.25C904.117 363.877 906.857 373.35 908.97 383.67C910.137 389.377 911.157 395.96 912.03 403.42C915.27 431.047 915.677 458.157 913.25 484.75C912.17 496.583 908.963 507.933 903.63 518.8C900.897 524.387 897.34 530.01 892.96 535.67C871.38 563.583 842.56 580.277 806.5 585.75C801.387 586.523 792.72 587.1 780.5 587.48C756.493 588.227 732.493 588.08 708.5 587.04C692.087 586.327 675.67 585.833 659.25 585.56C622.95 584.953 585.783 587.1 547.75 592C544.23 592.453 532.483 593.813 512.51 596.08C495.397 598.027 478.227 599.163 461 599.49C455.827 599.59 450.68 599.343 445.56 598.75C439.793 598.077 435.45 596.777 432.53 594.85C427.757 591.683 424.76 586.9 423.54 580.5C428.547 581.987 433.367 582.82 438 583C443.593 583.22 450.26 583.22 458 583C466.8 582.753 480.05 581.583 497.75 579.49C513.183 577.67 528.63 575.947 544.09 574.32C544.123 574.313 547.72 573.86 554.88 572.96C558.873 572.46 562.883 572.143 566.91 572.01C571.363 571.857 575.367 571.58 578.92 571.18C586.36 570.34 594.637 569.78 603.75 569.5C628.423 568.733 651.677 569.097 673.51 570.59C711.91 573.21 746.323 573.68 776.75 572C789.057 571.32 802.307 568.153 816.5 562.5C831.36 556.58 843.863 548.917 854.01 539.51C866.157 528.243 875.923 514.843 883.31 499.31C885.543 494.623 887.34 490 888.7 485.44C889.86 481.56 890.827 476.72 891.6 470.92C894.567 448.767 894.117 426.627 890.25 404.5C889.563 400.567 887.507 392.12 884.08 379.16C881.96 371.127 880.08 364.73 878.44 359.97C871.413 339.563 861.747 320.427 849.44 302.56C846.127 297.753 839.96 290.17 830.94 279.81C825.127 273.143 817.873 266.397 809.18 259.57C803.207 254.877 797.82 250.957 793.02 247.81C782.893 241.177 771.72 235.573 759.5 231C745.94 225.927 732.79 222.593 720.05 221C719.935 220.987 719.828 220.923 719.748 220.82C719.667 220.718 719.618 220.583 719.61 220.44L719.5 218.29Z" fill="#DADADA"/>
<path d="M384.94 233.51L372.98 233.34C371.787 233.32 370.827 232.947 370.1 232.22C368.033 230.167 367.88 228.313 369.64 226.66C370.573 225.773 372 225.28 373.92 225.18C382.547 224.74 389.427 224.743 394.56 225.19C397.533 225.45 398.93 226.753 398.75 229.1C398.657 230.34 397.94 231.723 396.6 233.25C392.327 238.13 387.917 243.057 383.37 248.03C383.057 248.377 383.133 248.543 383.6 248.53C387.687 248.417 391.5 248.45 395.04 248.63C396.72 248.717 397.943 249.083 398.71 249.73C399.943 250.763 400.29 252.187 399.75 254C399.277 255.58 398.247 256.493 396.66 256.74C396.613 256.747 395.34 256.75 392.84 256.75C386.973 256.75 381.103 256.75 375.23 256.75C373.25 256.75 371.85 256.413 371.03 255.74C370.05 254.933 369.603 253.823 369.69 252.41C369.75 251.463 370.233 250.49 371.14 249.49C375.813 244.323 380.47 239.137 385.11 233.93C385.35 233.657 385.293 233.517 384.94 233.51Z" fill="#010101"/>
<path d="M177.16 226.79L177.25 429.56C177.25 429.651 177.232 429.74 177.198 429.824C177.163 429.908 177.112 429.984 177.048 430.048C176.984 430.112 176.908 430.163 176.824 430.198C176.74 430.232 176.651 430.25 176.56 430.25C172.26 430.25 167.97 430.25 163.69 430.25C157.89 430.25 153.617 430.52 150.87 431.06C143.37 432.533 136.85 435.783 131.31 440.81C119.723 451.337 115.24 464.493 117.86 480.28C119.567 490.573 124.593 499.06 132.94 505.74C133.813 506.44 133.69 506.783 132.57 506.77C121.183 506.643 110.27 506.703 99.83 506.95C98.23 506.99 97.0734 507.267 96.36 507.78C95.12 508.667 94.75 509.99 95.25 511.75C95.8834 513.983 97.4634 515.023 99.99 514.87C101.29 514.79 101.967 514.75 102.02 514.75C182.36 514.577 238.77 514.66 271.25 515C297.81 515.273 320.563 515.317 339.51 515.13C347.19 515.05 353.857 515.027 359.51 515.06C429.037 515.44 498.563 515.35 568.09 514.79C568.997 514.783 572.103 514.833 577.41 514.94C579.49 514.98 581.57 514.967 583.65 514.9C586.55 514.8 588.623 514.75 589.87 514.75C673.463 514.723 756.733 514.743 839.68 514.81C840.84 514.81 840.967 515.17 840.06 515.89C829.4 524.377 817.637 530.357 804.77 533.83C784.757 539.237 764.417 540.88 743.75 538.76C727.95 537.14 712.117 535.977 696.25 535.27C671.177 534.163 646.093 533.71 621 533.91C607.62 534.01 590.287 534.707 569 536C555.22 536.833 542.797 538.637 531.73 541.41C520.71 544.177 509.55 545.867 498.25 546.48C492.317 546.807 486.153 546.937 479.76 546.87C474.66 546.817 468.49 546.61 461.25 546.25C452.417 545.81 444.667 546.393 438 548C433.92 548.987 430.07 550.827 426.45 553.52C422.803 556.233 420.073 559.387 418.26 562.98C415.453 568.56 414.617 574.817 415.75 581.75C417.957 595.27 425.77 603.373 439.19 606.06C444.323 607.093 449.51 607.647 454.75 607.72C465.937 607.887 477.1 607.453 488.24 606.42C507.687 604.62 527.103 602.543 546.49 600.19C577.843 596.39 606.597 594.243 632.75 593.75C652.663 593.37 676.663 593.843 704.75 595.17C732.917 596.497 761.083 596.617 789.25 595.53C805.397 594.91 821.03 591.997 836.15 586.79C842.61 584.563 848.723 581.917 854.49 578.85C875.63 567.59 892.82 551.743 906.06 531.31C909.247 526.383 911.93 521.023 914.11 515.23C914.163 515.089 914.257 514.968 914.38 514.883C914.504 514.797 914.65 514.751 914.8 514.75H958.16C959.593 522.057 960.157 529.41 959.85 536.81C959.743 539.543 959.227 542.963 958.3 547.07C957.54 550.45 956.857 553.85 956.25 557.27C956.063 558.31 955.707 559.29 955.18 560.21C952.653 564.603 950.593 569.197 949 573.99C948.493 575.523 948.11 577.75 947.85 580.67C947.223 587.63 944.717 593.847 940.33 599.32C938.75 601.28 937.933 602.297 937.88 602.37C935.993 604.817 934.47 606.63 933.31 607.81C928.35 612.85 924.267 617.683 921.06 622.31C919.507 624.557 918.19 626.153 917.11 627.1C911.577 631.94 905.687 636.303 899.44 640.19C893.98 643.577 887.843 646.187 881.03 648.02C876.21 649.313 872.71 650.187 870.53 650.64C867.297 651.32 863.703 651.773 859.75 652C858.517 652.073 855.473 652.407 850.62 653C850.533 653.007 847.503 653.447 841.53 654.32C834.597 655.333 828.253 655.56 822.5 655C813.753 654.147 803.867 652.587 792.84 650.32C791.54 650.053 785.053 648.527 773.38 645.74C758.413 642.173 742.203 639.26 724.75 637C699.663 633.747 674.997 633.163 650.75 635.25C647.763 635.503 638.597 636.42 623.25 638C615.87 638.76 610.597 639.48 607.43 640.16C596.417 642.527 585.43 645.02 574.47 647.64C574.41 647.653 570.487 648.63 562.7 650.57C538.013 656.723 512.947 660.533 487.5 662C482.26 662.3 471.177 662.6 454.25 662.9C424.403 663.413 396.403 661.697 370.25 657.75C351.79 654.963 330.56 650.92 306.56 645.62C299.447 644.053 292.97 642.513 287.13 641C261.05 634.24 236.757 626.407 214.25 617.5C205.937 614.207 194.89 609.28 181.11 602.72C154.023 589.813 128.76 574.07 105.32 555.49C97.9267 549.63 92.77 545.41 89.85 542.83C84.6767 538.237 79.4134 532.94 74.06 526.94C70.6334 523.093 70.01 519.03 72.19 514.75C76.03 515.317 78.17 514.147 78.61 511.24C78.8034 509.973 78.53 508.947 77.79 508.16C76.9767 507.293 75.86 506.867 74.44 506.88C67.5934 506.973 61.22 506.79 55.32 506.33C45.1067 495.07 38.02 482.94 34.06 469.94C30.2134 457.307 27.1167 444.493 24.77 431.5C23.0767 422.1 22.45 412.673 22.89 403.22C23.1767 397.093 24.1667 390.51 25.86 383.47C28.9467 370.67 33.2067 358.237 38.64 346.17C39.7934 343.61 40.7967 340.997 41.65 338.33C43.1634 333.61 44.0334 330.96 44.26 330.38C46.7134 324.227 49.89 318.45 53.79 313.05C59.69 304.877 66.1967 297.213 73.31 290.06C83.2834 280.04 95.8134 269.973 110.9 259.86C131.56 246.007 153.647 234.983 177.16 226.79Z" fill="#E8EAE9"/>
<path d="M203.98 228.75H185.74C185.591 228.75 185.47 228.871 185.47 229.02V429.98C185.47 430.129 185.591 430.25 185.74 430.25H203.98C204.129 430.25 204.25 430.129 204.25 429.98V229.02C204.25 228.871 204.129 228.75 203.98 228.75Z" fill="white"/>
<path d="M715.49 266.11C713.93 264.537 713.673 262.943 714.72 261.33C715.353 260.363 716.257 259.803 717.43 259.65C718.377 259.523 719.503 259.537 720.81 259.69C727.61 260.497 732.247 261.217 734.72 261.85C761.807 268.79 785.92 282.237 807.06 302.19C808.553 303.597 809.647 304.933 810.34 306.2C810.92 307.26 811.063 308.333 810.77 309.42C810.383 310.847 809.523 311.7 808.19 311.98C806.93 312.247 805.61 311.83 804.23 310.73C803.057 309.803 801.71 308.58 800.19 307.06C791.517 298.42 781.297 290.783 769.53 284.15C753.703 275.217 736.41 269.56 717.65 267.18C716.834 267.076 716.073 266.7 715.49 266.11Z" fill="#040403"/>
<path d="M523.46 384.46C524.307 394.987 523.57 404.167 521.25 412C519.443 418.113 517.777 424.267 516.25 430.46L473.16 430.47C474.013 426.15 474.79 421.833 475.49 417.52C476.25 412.873 476.583 408.503 476.49 404.41C476.23 392.623 474.637 380.99 471.71 369.51C468.537 357.063 462.653 346.29 454.06 337.19C442.56 325.003 429.06 315.17 413.56 307.69C406.3 304.183 401.417 301.717 398.91 300.29C407.37 299.35 416.217 299.017 425.45 299.29C426.317 299.309 427.167 299.069 427.89 298.6L476.84 266.77C476.884 266.742 476.934 266.726 476.985 266.724C477.037 266.721 477.089 266.732 477.135 266.755C477.181 266.778 477.221 266.813 477.25 266.856C477.279 266.899 477.296 266.948 477.3 267L481.95 321.4C482.05 322.56 482.557 323.487 483.47 324.18C502.017 338.253 512.6 356.693 515.22 379.5C515.527 382.147 516.06 383.863 516.82 384.65C518.26 386.137 520.473 386.073 523.46 384.46Z" fill="#D9D9D9"/>
<path d="M398.91 300.29C401.417 301.717 406.3 304.183 413.56 307.69C429.06 315.17 442.56 325.003 454.06 337.19C462.653 346.29 468.537 357.063 471.71 369.51C474.637 380.99 476.23 392.623 476.49 404.41C476.583 408.503 476.25 412.873 475.49 417.52C474.79 421.833 474.013 426.15 473.16 430.47L316.7 430.5C316.398 430.5 316.103 430.413 315.848 430.25C315.593 430.087 315.389 429.855 315.26 429.58C304.753 406.993 304.48 384.197 314.44 361.19C315.14 359.563 315.28 357.77 314.86 355.81C314.547 354.357 314.387 353.6 314.38 353.54C311.16 333.807 307.977 314.107 304.83 294.44C304.822 294.386 304.828 294.33 304.847 294.279C304.867 294.227 304.899 294.182 304.942 294.147C304.984 294.112 305.034 294.088 305.088 294.078C305.142 294.068 305.198 294.072 305.25 294.09L360.31 311.93C361.457 312.303 362.54 312.18 363.56 311.56C374.2 305 385.983 301.243 398.91 300.29ZM318.02 318.02C318.533 318.333 319.09 318.51 319.69 318.55C324.743 318.89 329.55 320.297 334.11 322.77C337.103 324.39 339.59 326.373 341.57 328.72C343.67 331.2 345.317 333.98 346.51 337.06C346.669 337.464 346.939 337.814 347.288 338.069C347.637 338.324 348.05 338.474 348.48 338.5C352.14 338.72 353.953 337.523 353.92 334.91C353.9 333.623 353.33 331.98 352.21 329.98C345.477 317.933 334.907 311.497 320.5 310.67C318.707 310.57 317.367 311.123 316.48 312.33C315.78 313.283 315.57 314.287 315.85 315.34C316.123 316.407 316.847 317.3 318.02 318.02ZM434.2 378.46C437.147 380.993 440.23 382.623 443.45 383.35C446.65 384.07 449.97 383.78 453.41 382.48C459.443 380.207 463.14 375.63 464.5 368.75C465.213 365.13 464.04 363.21 460.98 362.99C459.893 362.91 458.977 363.173 458.23 363.78C457.397 364.46 456.863 365.343 456.63 366.43C456.203 368.443 455.983 369.463 455.97 369.49C454.963 371.837 453.377 373.57 451.21 374.69C449.283 375.683 447.247 376.013 445.1 375.68C442.74 375.313 440.853 374.19 439.44 372.31C438.473 371.037 437.4 370.203 436.22 369.81C434.953 369.397 433.777 369.667 432.69 370.62C431.243 371.893 430.977 373.5 431.89 375.44C432.443 376.613 433.213 377.62 434.2 378.46ZM367.69 395.31C369.79 396.817 371.973 397.83 374.24 398.35C376.353 398.83 378.697 398.81 381.27 398.29C388.983 396.743 393.687 391.807 395.38 383.48C395.887 380.98 395.197 379.3 393.31 378.44C391.61 377.66 390.2 377.83 389.08 378.95C388.547 379.483 388.063 380.617 387.63 382.35C386.117 388.383 382.22 391.023 375.94 390.27C374.633 390.117 373.563 389.76 372.73 389.2C371.843 388.607 370.997 387.81 370.19 386.81C366.97 382.823 364.31 382.983 362.21 387.29C362.069 387.585 362.047 387.919 362.15 388.22C363.123 391 364.97 393.363 367.69 395.31ZM410.69 418.81C413.617 421.477 416 423.503 417.84 424.89C419.04 425.79 420.133 426.137 421.12 425.93C422.387 425.663 423.367 424.79 424.06 423.31C425.54 420.157 426.957 416.973 428.31 413.76C429.11 411.853 429.277 410.297 428.81 409.09C428.017 407.05 426.167 406.37 423.26 407.05C419.213 407.997 415.177 408.973 411.15 409.98C409.99 410.267 409.15 410.617 408.63 411.03C407.83 411.677 407.33 412.493 407.13 413.48C406.917 414.533 407.273 415.527 408.2 416.46C408.82 417.08 409.65 417.863 410.69 418.81Z" fill="white"/>
<path d="M318.02 318.02C316.847 317.3 316.123 316.407 315.85 315.34C315.57 314.287 315.78 313.283 316.48 312.33C317.367 311.123 318.707 310.57 320.5 310.67C334.907 311.497 345.477 317.933 352.21 329.98C353.33 331.98 353.9 333.623 353.92 334.91C353.953 337.523 352.14 338.72 348.48 338.5C348.05 338.474 347.637 338.324 347.288 338.069C346.939 337.814 346.669 337.464 346.51 337.06C345.317 333.98 343.67 331.2 341.57 328.72C339.59 326.373 337.103 324.39 334.11 322.77C329.55 320.297 324.743 318.89 319.69 318.55C319.09 318.51 318.533 318.333 318.02 318.02Z" fill="#010101"/>
<path d="M835.44 352.09C835.004 352.037 834.586 351.884 834.219 351.643C833.851 351.402 833.544 351.079 833.32 350.7C828.513 342.513 823.443 334.497 818.11 326.65C816.803 324.723 817.063 323.063 818.89 321.67C820.95 320.09 822.783 320.313 824.39 322.34C829.823 329.207 834.623 336.48 838.79 344.16C839.817 346.053 840.367 347.567 840.44 348.7C840.62 351.387 838.953 352.517 835.44 352.09Z" fill="#040403"/>
<path d="M903.79 358.164C905.226 359.571 906.485 360.615 906.601 360.497C906.717 360.378 905.646 359.142 904.21 357.736C902.774 356.329 901.515 355.285 901.399 355.403C901.283 355.522 902.354 356.758 903.79 358.164Z" fill="#6E6E6E"/>
<path d="M434.2 378.46C433.213 377.62 432.443 376.613 431.89 375.44C430.977 373.5 431.243 371.893 432.69 370.62C433.777 369.667 434.953 369.397 436.22 369.81C437.4 370.203 438.473 371.037 439.44 372.31C440.853 374.19 442.74 375.313 445.1 375.68C447.247 376.013 449.283 375.683 451.21 374.69C453.377 373.57 454.963 371.837 455.97 369.49C455.983 369.463 456.203 368.443 456.63 366.43C456.863 365.343 457.397 364.46 458.23 363.78C458.977 363.173 459.893 362.91 460.98 362.99C464.04 363.21 465.213 365.13 464.5 368.75C463.14 375.63 459.443 380.207 453.41 382.48C449.97 383.78 446.65 384.07 443.45 383.35C440.23 382.623 437.147 380.993 434.2 378.46Z" fill="#010101"/>
<path d="M910.31 364.879C911.128 365.851 911.908 366.54 912.052 366.419C912.195 366.298 911.648 365.413 910.83 364.441C910.012 363.469 909.232 362.78 909.089 362.901C908.945 363.022 909.492 363.907 910.31 364.879Z" fill="#6E6E6E"/>
<path d="M367.69 395.31C364.97 393.363 363.123 391 362.15 388.22C362.048 387.919 362.069 387.585 362.21 387.29C364.31 382.983 366.97 382.823 370.19 386.81C370.997 387.81 371.843 388.607 372.73 389.2C373.563 389.76 374.633 390.117 375.94 390.27C382.22 391.023 386.117 388.383 387.63 382.35C388.063 380.617 388.547 379.483 389.08 378.95C390.2 377.83 391.61 377.66 393.31 378.44C395.197 379.3 395.887 380.98 395.38 383.48C393.687 391.807 388.983 396.743 381.27 398.29C378.697 398.81 376.353 398.83 374.24 398.35C371.973 397.83 369.79 396.817 367.69 395.31Z" fill="#010101"/>
<path d="M410.69 418.81C409.65 417.863 408.82 417.08 408.2 416.46C407.273 415.527 406.917 414.533 407.13 413.48C407.33 412.493 407.83 411.677 408.63 411.03C409.15 410.617 409.99 410.267 411.15 409.98C415.177 408.973 419.213 407.997 423.26 407.05C426.167 406.37 428.017 407.05 428.81 409.09C429.277 410.297 429.11 411.853 428.31 413.76C426.957 416.973 425.54 420.157 424.06 423.31C423.367 424.79 422.387 425.663 421.12 425.93C420.133 426.137 419.04 425.79 417.84 424.89C416 423.503 413.617 421.477 410.69 418.81Z" fill="#010101"/>
<path d="M854.86 510.04C853.84 508.027 852.72 507.013 851.5 507C825.407 506.653 803.49 506.57 785.75 506.75C764.69 506.963 746.69 506.95 731.75 506.71C731.837 504.257 733.093 503.27 735.52 503.75C736.953 504.037 738.217 503.693 739.31 502.72C741.07 501.147 743.017 499.737 745.15 498.49C745.89 498.057 748.047 497.037 751.62 495.43C755.66 493.617 759.48 491.437 763.08 488.89C766.473 486.497 769.087 484.803 770.92 483.81C772.747 482.817 774.58 481.84 776.42 480.88C778.42 479.827 780.2 478.76 781.76 477.68C790.9 471.367 799.523 464.42 807.63 456.84C810.137 454.493 812.41 451.83 814.45 448.85C815.777 446.917 817.087 444.973 818.38 443.02C819.867 440.767 820.953 438.693 821.64 436.8C823.16 432.593 824.02 428.25 824.22 423.77C824.253 423.05 824.067 420.723 823.66 416.79C823.387 414.197 823.5 411.593 824 408.98C824.267 407.62 825.053 407.17 826.36 407.63C827.747 408.11 828.587 409.113 828.88 410.64C829.153 412.053 829.297 412.78 829.31 412.82C830.237 415.593 831.883 417.737 834.25 419.25C839.27 422.463 843.34 426.327 846.46 430.84C850.94 437.327 854.287 444.713 856.5 453C858.187 459.313 859.25 463.65 859.69 466.01C862.49 481.07 860.88 495.747 854.86 510.04Z" fill="#D9D9D9"/>
<path d="M167.66 438.74C160.467 443.38 155.24 449.373 151.98 456.72C149.287 462.793 148.257 469.297 148.89 476.23C150.07 489.19 156.723 499.313 168.85 506.6C164.51 506.98 160.24 506.947 156.04 506.5C151.493 506.013 147.437 504.867 143.87 503.06C134.79 498.48 128.833 491.127 126 481C123.813 473.173 124.69 465.373 128.63 457.6C133.99 447.04 142.447 440.84 154 439C157.933 438.373 162.487 438.287 167.66 438.74Z" fill="white"/>
<path d="M167.66 438.74L245.25 438.5C246.217 438.5 246.3 438.77 245.5 439.31C242.073 441.657 239.183 444.51 236.83 447.87C234.697 450.917 232.847 454.47 231.28 458.53C228.393 466.023 227.8 473.68 229.5 481.5C231.613 491.22 236.713 499.507 244.8 506.36C245.06 506.58 245.02 506.69 244.68 506.69L168.85 506.6C156.723 499.313 150.07 489.19 148.89 476.23C148.257 469.297 149.287 462.793 151.98 456.72C155.24 449.373 160.467 443.38 167.66 438.74Z" fill="#D9D9D9"/>
<path d="M281.56 506.89C277.647 505.17 274.077 502.96 270.85 500.26C270.797 500.22 269.623 499.34 267.33 497.62C265.357 496.133 263.913 494.257 263 491.99C261.76 488.903 261.11 487.297 261.05 487.17C256.783 478.23 256.08 469.07 258.94 459.69C261.28 451.99 265.88 445.527 272.74 440.3C272.787 440.267 273.017 440.147 273.43 439.94C273.823 439.74 273.847 439.413 273.5 438.96C356.46 438.633 410.71 438.563 436.25 438.75C468.35 438.983 495.683 438.983 518.25 438.75C519.61 438.737 520.78 438.76 521.76 438.82C523.353 438.92 524.517 438.977 525.25 438.99C535.063 439.13 543.21 442.737 549.69 449.81C555.817 456.51 558.853 464.09 558.8 472.55C558.76 479.323 556.873 485.62 553.14 491.44C548.613 498.507 542.14 503.26 533.72 505.7C530.747 506.567 526.713 507 521.62 507C464.333 507 407.043 507 349.75 507C348.543 507 347.537 507.027 346.73 507.08C345.257 507.18 344.26 507.223 343.74 507.21C332.433 506.917 321.123 506.877 309.81 507.09C304.71 507.183 300 507.19 295.68 507.11C290.953 507.023 286.247 506.95 281.56 506.89ZM303.5 472.91C303.5 467.767 301.457 462.836 297.821 459.199C294.184 455.563 289.253 453.52 284.11 453.52C278.967 453.52 274.036 455.563 270.399 459.199C266.763 462.836 264.72 467.767 264.72 472.91C264.72 478.053 266.763 482.984 270.399 486.621C274.036 490.257 278.967 492.3 284.11 492.3C289.253 492.3 294.184 490.257 297.821 486.621C301.457 482.984 303.5 478.053 303.5 472.91ZM391.62 473.02C391.62 470.872 390.767 468.811 389.248 467.292C387.729 465.773 385.668 464.92 383.52 464.92C381.372 464.92 379.312 465.773 377.792 467.292C376.273 468.811 375.42 470.872 375.42 473.02C375.42 474.084 375.63 475.137 376.037 476.12C376.444 477.102 377.04 477.995 377.792 478.748C378.545 479.5 379.438 480.096 380.42 480.503C381.403 480.91 382.456 481.12 383.52 481.12C384.584 481.12 385.637 480.91 386.62 480.503C387.602 480.096 388.495 479.5 389.248 478.748C390 477.995 390.596 477.102 391.003 476.12C391.41 475.137 391.62 474.084 391.62 473.02ZM426.911 481.082C427.944 480.97 428.944 480.649 429.854 480.138C430.763 479.627 431.565 478.935 432.214 478.102C432.862 477.27 433.344 476.312 433.632 475.285C433.921 474.258 434.009 473.181 433.894 472.116C433.66 469.964 432.607 467.991 430.967 466.63C429.327 465.269 427.234 464.631 425.149 464.858C424.116 464.97 423.116 465.291 422.206 465.802C421.297 466.313 420.495 467.005 419.846 467.838C419.198 468.67 418.716 469.628 418.428 470.655C418.139 471.682 418.051 472.759 418.166 473.824C418.4 475.976 419.453 477.949 421.093 479.31C422.733 480.671 424.826 481.309 426.911 481.082ZM476.69 473.01C476.69 470.856 475.835 468.791 474.312 467.268C472.789 465.746 470.724 464.89 468.57 464.89C467.504 464.89 466.448 465.1 465.463 465.508C464.477 465.916 463.582 466.514 462.828 467.268C462.074 468.022 461.476 468.917 461.068 469.903C460.66 470.888 460.45 471.944 460.45 473.01C460.45 474.076 460.66 475.132 461.068 476.117C461.476 477.103 462.074 477.998 462.828 478.752C463.582 479.506 464.477 480.104 465.463 480.512C466.448 480.92 467.504 481.13 468.57 481.13C470.724 481.13 472.789 480.275 474.312 478.752C475.835 477.229 476.69 475.164 476.69 473.01ZM519.44 473.07C519.44 470.922 518.587 468.861 517.068 467.342C515.549 465.823 513.488 464.97 511.34 464.97C509.192 464.97 507.131 465.823 505.612 467.342C504.093 468.861 503.24 470.922 503.24 473.07C503.24 475.218 504.093 477.279 505.612 478.798C507.131 480.317 509.192 481.17 511.34 481.17C513.488 481.17 515.549 480.317 517.068 478.798C518.587 477.279 519.44 475.218 519.44 473.07Z" fill="#AEAEAE"/>
<path d="M273.5 438.96C273.847 439.413 273.823 439.74 273.43 439.94C273.017 440.147 272.787 440.267 272.74 440.3C265.88 445.527 261.28 451.99 258.94 459.69C256.08 469.07 256.783 478.23 261.05 487.17C261.11 487.297 261.76 488.903 263 491.99C263.913 494.257 265.357 496.133 267.33 497.62C269.623 499.34 270.797 500.22 270.85 500.26C274.077 502.96 277.647 505.17 281.56 506.89C276.027 507.13 271.257 507.083 267.25 506.75C260.65 506.203 254.713 503.73 249.44 499.33C240.633 491.983 236.497 482.477 237.03 470.81C237.397 462.71 240.343 455.73 245.87 449.87C253.277 442.017 262.487 438.38 273.5 438.96Z" fill="#DADADA"/>
<path d="M303.5 472.91C303.5 478.053 301.457 482.984 297.821 486.621C294.184 490.257 289.253 492.3 284.11 492.3C278.967 492.3 274.036 490.257 270.399 486.621C266.763 482.984 264.72 478.053 264.72 472.91C264.72 467.767 266.763 462.836 270.399 459.199C274.036 455.563 278.967 453.52 284.11 453.52C289.253 453.52 294.184 455.563 297.821 459.199C301.457 462.836 303.5 467.767 303.5 472.91ZM295.05 472.89C295.05 470.007 293.905 467.242 291.866 465.204C289.828 463.165 287.063 462.02 284.18 462.02C281.297 462.02 278.532 463.165 276.494 465.204C274.455 467.242 273.31 470.007 273.31 472.89C273.31 475.773 274.455 478.538 276.494 480.576C278.532 482.615 281.297 483.76 284.18 483.76C287.063 483.76 289.828 482.615 291.866 480.576C293.905 478.538 295.05 475.773 295.05 472.89Z" fill="#6E6E6E"/>
<path d="M284.18 483.76C290.183 483.76 295.05 478.893 295.05 472.89C295.05 466.887 290.183 462.02 284.18 462.02C278.177 462.02 273.31 466.887 273.31 472.89C273.31 478.893 278.177 483.76 284.18 483.76Z" fill="white"/>
<path d="M383.52 481.12C387.994 481.12 391.62 477.493 391.62 473.02C391.62 468.546 387.994 464.92 383.52 464.92C379.047 464.92 375.42 468.546 375.42 473.02C375.42 477.493 379.047 481.12 383.52 481.12Z" fill="#6E6E6E"/>
<path d="M418.166 473.824C418.653 478.305 422.568 481.554 426.911 481.082C431.254 480.61 434.38 476.596 433.894 472.116C433.407 467.635 429.492 464.386 425.149 464.858C420.806 465.329 417.68 469.344 418.166 473.824Z" fill="#6E6E6E"/>
<path d="M468.57 481.13C473.054 481.13 476.69 477.495 476.69 473.01C476.69 468.526 473.054 464.89 468.57 464.89C464.085 464.89 460.45 468.526 460.45 473.01C460.45 477.495 464.085 481.13 468.57 481.13Z" fill="#6E6E6E"/>
<path d="M511.34 481.17C515.814 481.17 519.44 477.544 519.44 473.07C519.44 468.597 515.814 464.97 511.34 464.97C506.867 464.97 503.24 468.597 503.24 473.07C503.24 477.544 506.867 481.17 511.34 481.17Z" fill="#6E6E6E"/>
<path d="M55.32 506.33C61.22 506.79 67.5933 506.973 74.44 506.88C75.86 506.867 76.9766 507.293 77.79 508.16C78.53 508.947 78.8033 509.973 78.61 511.24C78.17 514.147 76.03 515.317 72.19 514.75H36.46C36.3922 514.751 36.3253 514.736 36.2643 514.706C36.2032 514.676 36.1495 514.633 36.1072 514.579C36.0649 514.525 36.0351 514.462 36.02 514.395C36.0049 514.328 36.0049 514.258 36.02 514.19C36.62 511.71 37.4566 509.64 38.53 507.98C38.6124 507.852 38.7269 507.746 38.8632 507.672C38.9995 507.599 39.1531 507.56 39.31 507.56C44.21 507.527 49.5466 507.117 55.32 506.33Z" fill="#010101"/>
<path d="M1022.29 506.79H978.17C976.132 506.79 974.48 508.442 974.48 510.48V511.06C974.48 513.098 976.132 514.75 978.17 514.75H1022.29C1024.33 514.75 1025.98 513.098 1025.98 511.06V510.48C1025.98 508.442 1024.33 506.79 1022.29 506.79Z" fill="#010101"/>
</svg>
