<svg width="830" height="580" viewBox="0 0 830 580" fill="none" xmlns="http://www.w3.org/2000/svg">
<path d="M754.75 444.04C752.33 446 752.463 447.653 755.15 449C755.783 466.433 753.087 483.173 747.06 499.22C744.533 505.933 741.573 511.893 738.18 517.1C727.827 532.987 713.573 543.85 695.42 549.69C689.673 551.537 683.157 552.893 675.87 553.76C661.163 555.507 646.457 555.01 631.75 552.27C624.077 550.843 616.457 549.17 608.89 547.25C583.917 540.897 558.537 537.73 532.75 537.75C510.217 537.77 487.383 540.27 464.25 545.25C463.19 545.483 456.723 547.1 444.85 550.1C428.723 554.18 412.357 556.977 395.75 558.49C386.263 559.35 376.763 559.897 367.25 560.13C359.957 560.303 353.287 560.397 347.24 560.41C329.053 560.463 310.64 559.16 292 556.5C266.793 552.907 242.473 547.993 219.04 541.76C186.873 533.207 156.1 521.123 126.72 505.51C102.5 492.637 79.6133 475.947 58.06 455.44C55.6533 453.147 54.1333 451.013 53.5 449.04C61.4133 448.993 69.33 448.917 77.25 448.81C79.4167 448.783 80.3367 447.843 80.01 445.99C79.7833 444.677 78.98 444.013 77.6 444L46.8 443.63C23.3533 414.257 13.5567 381.097 17.41 344.15C18.1167 337.377 19.3567 330.837 21.13 324.53C29.0433 296.43 44.8967 273.233 68.69 254.94C88.7033 239.553 110.11 227.427 132.91 218.56C132.897 227.707 131.927 237.437 130 247.75C125.34 272.697 121.697 299.45 119.07 328.01C117.643 343.49 117.993 358.927 120.12 374.32C121.96 387.707 125.943 400.413 132.07 412.44C135.297 418.773 139.397 424.43 144.37 429.41C146.363 431.397 148.02 433.35 149.34 435.27C151.273 438.083 153.287 440.84 155.38 443.54C155.587 443.807 155.523 443.94 155.19 443.94L93.62 444C93.2526 444 92.8915 444.091 92.5699 444.266C92.2484 444.441 91.9767 444.693 91.78 445C90.7533 446.613 90.9467 447.783 92.36 448.51C92.9933 448.837 93.95 449 95.23 449C308.077 449 521.82 449 736.46 449C737.032 449 737.582 448.786 738 448.4C739.407 447.1 739.54 445.93 738.4 444.89C737.8 444.337 736.903 444.06 735.71 444.06C712.41 444.02 689.11 443.98 665.81 443.94C665.477 443.94 665.453 443.853 665.74 443.68C673.36 438.933 679.467 434.893 684.06 431.56C693.2 424.94 701.627 417.22 709.34 408.4C713.887 403.2 717.877 397.873 721.31 392.42C735.69 369.593 742.277 344.287 741.07 316.5C740.403 301.227 737.817 286.343 733.31 271.85C731.477 265.963 729.713 260.923 728.02 256.73C726.02 251.763 723.67 246.95 720.97 242.29C713.317 229.05 703.907 217.21 692.74 206.77C671.833 187.23 647.087 175.807 618.5 172.5C605.653 171.013 593.133 171.277 580.94 173.29C577.54 173.85 574.997 174.59 573.31 175.51C570.91 176.823 568.9 178.667 567.28 181.04C564.927 184.487 563.187 188.23 562.06 192.27C559.22 202.477 557.727 212.887 557.58 223.5C557.2 251.607 560.84 279.487 568.5 307.14C568.535 307.267 568.527 307.402 568.478 307.525C568.43 307.648 568.342 307.751 568.23 307.82L550.68 318.5C550.55 318.577 550.402 318.622 550.249 318.631C550.096 318.64 549.942 318.612 549.8 318.55C532.973 311.03 515.17 306.327 496.39 304.44C496.183 304.42 495.987 304.338 495.826 304.204C495.666 304.07 495.549 303.891 495.49 303.69L485.49 269.23C484.857 267.037 483.58 266.57 481.66 267.83C480.573 268.537 479.55 269.447 478.59 270.56C477.39 271.947 476.757 272.677 476.69 272.75C471.563 278.257 467.147 283.653 463.44 288.94C453.973 302.44 445.227 316.587 437.2 331.38C437.134 331.5 437.031 331.596 436.908 331.655C436.784 331.714 436.645 331.733 436.51 331.71C427.67 330.077 419.19 327.15 411.07 322.93C399.61 316.983 389.043 309.78 379.37 301.32C373.057 295.8 369.88 293.023 369.84 292.99C366.56 290.27 362.51 286.96 357.69 283.06C345.177 272.953 331.753 264.83 317.42 258.69C306.46 254.003 294.153 250.94 280.5 249.5C265.76 247.947 251.813 249.283 238.66 253.51C232.78 255.403 226.717 258.14 220.47 261.72C209.857 267.8 200.187 275.213 191.46 283.96C183.513 291.927 176.17 300.423 169.43 309.45C168.697 310.43 168.393 310.31 168.52 309.09C170.28 291.937 172.723 274.83 175.85 257.77C179.21 239.437 179.903 220.887 177.93 202.12C206.13 193.867 234.733 187.797 263.74 183.91C275.307 182.357 289.727 181.387 307 181C310.727 180.913 322.643 180.223 342.75 178.93C366.057 177.423 388.64 174.78 410.5 171C428.12 167.953 445.74 163.36 463.36 157.22C493.173 146.84 519.83 131.13 543.33 110.09C558.07 96.89 573.897 85.9633 590.81 77.31C604.65 70.2367 619.55 65.15 635.51 62.05C659.15 57.4567 681.98 59.1067 704 67C716.38 71.44 728.353 77.9 739.92 86.38C754.127 96.7933 767.133 109.27 778.94 123.81C789.113 136.35 797.307 149.483 803.52 163.21C814.88 188.337 818.187 214.33 813.44 241.19C809.787 261.843 801.813 280.74 789.52 297.88C788.027 299.96 784.78 303.833 779.78 309.5C775.953 313.82 772.88 317.84 770.56 321.56C763.7 332.553 758.883 345.223 756.11 359.57C753.45 373.337 752.08 387.23 752 401.25C751.927 413.537 752.843 427.8 754.75 444.04Z" fill="#E8EAE9"/>
<path d="M177.93 202.12C179.903 220.887 179.21 239.437 175.85 257.77C172.723 274.83 170.28 291.937 168.52 309.09C168.393 310.31 168.697 310.43 169.43 309.45C176.17 300.423 183.513 291.927 191.46 283.96C200.187 275.213 209.857 267.8 220.47 261.72C226.717 258.14 232.78 255.403 238.66 253.51C251.813 249.283 265.76 247.947 280.5 249.5C294.153 250.94 306.46 254.003 317.42 258.69C331.753 264.83 345.177 272.953 357.69 283.06C362.51 286.96 366.56 290.27 369.84 292.99C369.88 293.023 373.057 295.8 379.37 301.32C389.043 309.78 399.61 316.983 411.07 322.93C419.19 327.15 427.67 330.077 436.51 331.71C436.645 331.733 436.784 331.714 436.908 331.655C437.031 331.596 437.134 331.5 437.2 331.38C445.227 316.587 453.973 302.44 463.44 288.94C467.147 283.653 471.563 278.257 476.69 272.75C476.757 272.677 477.39 271.947 478.59 270.56C479.55 269.447 480.573 268.537 481.66 267.83C483.58 266.57 484.857 267.037 485.49 269.23L495.49 303.69C495.549 303.891 495.666 304.07 495.826 304.204C495.987 304.338 496.183 304.42 496.39 304.44C515.17 306.327 532.973 311.03 549.8 318.55C549.942 318.612 550.096 318.64 550.249 318.631C550.402 318.622 550.55 318.577 550.68 318.5L568.23 307.82C568.342 307.751 568.43 307.648 568.478 307.525C568.527 307.402 568.535 307.267 568.5 307.14C560.84 279.487 557.2 251.607 557.58 223.5C557.727 212.887 559.22 202.477 562.06 192.27C563.187 188.23 564.927 184.487 567.28 181.04C568.9 178.667 570.91 176.823 573.31 175.51C574.997 174.59 577.54 173.85 580.94 173.29C593.133 171.277 605.653 171.013 618.5 172.5C647.087 175.807 671.833 187.23 692.74 206.77C703.907 217.21 713.317 229.05 720.97 242.29C723.67 246.95 726.02 251.763 728.02 256.73C729.713 260.923 731.477 265.963 733.31 271.85C737.817 286.343 740.403 301.227 741.07 316.5C742.277 344.287 735.69 369.593 721.31 392.42C717.877 397.873 713.887 403.2 709.34 408.4C701.627 417.22 693.2 424.94 684.06 431.56C679.467 434.893 673.36 438.933 665.74 443.68C665.453 443.853 665.477 443.94 665.81 443.94C689.11 443.98 712.41 444.02 735.71 444.06C736.903 444.06 737.8 444.337 738.4 444.89C739.54 445.93 739.407 447.1 738 448.4C737.582 448.786 737.032 449 736.46 449C521.82 449 308.077 449 95.23 449C93.95 449 92.9933 448.837 92.36 448.51C90.9467 447.783 90.7533 446.613 91.78 445C91.9767 444.693 92.2483 444.441 92.5699 444.266C92.8915 444.091 93.2526 444 93.62 444L155.19 443.94C155.523 443.94 155.587 443.807 155.38 443.54C153.287 440.84 151.273 438.083 149.34 435.27C148.02 433.35 146.363 431.397 144.37 429.41C139.397 424.43 135.297 418.773 132.07 412.44C125.943 400.413 121.96 387.707 120.12 374.32C117.993 358.927 117.643 343.49 119.07 328.01C121.697 299.45 125.34 272.697 130 247.75C131.927 237.437 132.897 227.707 132.91 218.56C133.123 192.84 125.133 169.757 108.94 149.31C106.58 146.337 104.747 142.753 103.44 138.56C100.653 129.6 102.523 121.927 109.05 115.54C114.477 110.227 120.793 108.463 128 110.25C131.26 111.057 134.7 112.797 138.32 115.47C147.073 121.917 154.067 129.91 159.3 139.45C163.133 146.45 166.33 153.73 168.89 161.29C173.417 174.677 176.43 188.287 177.93 202.12ZM123.57 339.65C122.917 350.003 123.457 361.223 125.19 373.31C127.35 388.403 132 402.18 139.14 414.64C139.2 414.743 139.28 414.828 139.372 414.886C139.464 414.945 139.563 414.974 139.66 414.97C139.993 414.957 140.02 414.763 139.74 414.39C139.613 414.237 139.533 414.087 139.5 413.94C136.98 404.633 135.98 395.57 136.5 386.75C137.68 366.73 143.78 348.067 154.8 330.76C157.14 327.087 159.493 323.423 161.86 319.77C162.613 318.597 163.037 317.31 163.13 315.91C163.663 307.277 164.477 298.607 165.57 289.9C168.263 272.12 169.99 261.153 170.75 257C174.337 237.347 174.997 218.253 172.73 199.72C170.397 180.68 165.033 162.55 156.64 145.33C152.953 137.763 148.127 131.017 142.16 125.09C138.967 121.917 135.567 119.31 131.96 117.27C129.02 115.57 126.04 114.717 123.02 114.71C120.167 114.71 117.377 115.653 114.65 117.54C108.857 121.56 106.513 127.17 107.62 134.37C108.033 137.043 108.983 139.63 110.47 142.13C111.657 144.117 113.23 146.427 115.19 149.06C134.877 175.52 141.973 205.68 136.48 239.54C135.453 245.867 134.383 252.187 133.27 258.5C129.177 281.7 126.087 305.033 124 328.5C123.627 332.673 123.483 336.39 123.57 339.65ZM673.29 393.25C673.197 398.177 672.987 403.097 672.66 408.01C671.967 418.337 669.037 428.427 663.87 438.28C663.663 438.667 663.75 438.75 664.13 438.53C674.603 432.523 684.373 425.453 693.44 417.32C698.64 412.653 703.273 407.873 707.34 402.98C728.833 377.12 738.29 346.71 735.71 311.75C734.523 294.497 730.847 277.883 724.68 261.91C722.227 255.557 719.353 249.55 716.06 243.89C710.773 234.803 704.69 226.487 697.81 218.94C670.47 188.933 636.137 174.883 594.81 176.79C594.477 176.803 594.447 176.907 594.72 177.1C598.467 179.687 601.707 182.423 604.44 185.31C611.033 192.29 616.82 199.99 621.8 208.41C624.26 212.577 627.37 218.47 631.13 226.09C636.597 237.183 641.657 249.05 646.31 261.69C662.09 304.53 671.083 348.383 673.29 393.25ZM584.28 299.49C585.347 300.023 585.747 301.027 585.48 302.5C583.873 311.26 582.143 320.36 580.29 329.8C580.19 330.333 580.22 330.86 580.38 331.38C585.533 347.613 591.387 363.447 597.94 378.88C601.053 386.213 604.677 393.58 608.81 400.98C608.925 401.186 609.1 401.353 609.312 401.458C609.524 401.564 609.764 401.603 610 401.57C618.64 400.37 627.113 400.33 635.42 401.45C642.827 402.45 649.747 404.823 656.18 408.57C659.993 410.783 663.137 413.563 665.61 416.91C666.057 417.517 666.333 417.447 666.44 416.7C668.2 404.26 668.547 391.777 667.48 379.25C663.12 328.037 650.203 279.123 628.73 232.51C626.297 227.21 622.573 220.187 617.56 211.44C612.333 202.307 606.35 194.37 599.61 187.63C597.583 185.603 595.7 184.01 593.96 182.85C591.8 181.403 589.583 180.267 587.31 179.44C582.377 177.64 578.09 178.09 574.45 180.79C572.657 182.117 571.007 184.187 569.5 187C568.173 189.487 567.173 191.987 566.5 194.5C564.587 201.68 563.4 209.1 562.94 216.76C562.647 221.613 562.61 228.277 562.83 236.75C563.43 259.61 566.797 282.093 572.93 304.2C572.946 304.261 572.976 304.317 573.016 304.365C573.057 304.413 573.107 304.451 573.163 304.476C573.219 304.501 573.28 304.513 573.34 304.51C573.4 304.507 573.458 304.49 573.51 304.46L581.88 299.61C582.258 299.392 582.675 299.267 583.094 299.246C583.513 299.225 583.921 299.309 584.28 299.49ZM293.75 443.96L370.21 443.98L384.95 444C385.096 444 385.236 443.942 385.339 443.839C385.442 443.736 385.5 443.596 385.5 443.45C385.5 437.983 385.437 432.583 385.31 427.25C385.243 424.523 385.673 421.883 386.6 419.33C391.953 404.67 402.587 397.463 418.5 397.71C425.053 398.463 430.7 400.663 435.44 404.31C441.513 408.983 444.587 415.38 444.66 423.5C444.72 430.167 444.75 436.833 444.75 443.5C444.75 443.633 444.803 443.76 444.896 443.854C444.99 443.947 445.117 444 445.25 444H560.68C561.953 444 563.12 443.647 564.18 442.94C570.867 438.5 575.39 432.437 577.75 424.75C580.457 415.943 581.483 407.867 580.83 400.52C580.35 395.067 579.68 389.773 578.82 384.64C578.587 383.267 577.797 382.41 576.45 382.07C572.117 380.95 567.977 381.38 564.03 383.36C562.17 384.3 560.733 384.067 559.72 382.66C558.667 381.193 558.947 380.057 560.56 379.25C565.853 376.59 571.36 375.827 577.08 376.96C577.135 376.972 577.192 376.97 577.246 376.955C577.3 376.94 577.35 376.912 577.391 376.874C577.433 376.836 577.464 376.788 577.483 376.735C577.502 376.682 577.508 376.626 577.5 376.57C576.387 368.103 575.47 361.997 574.75 358.25C571.503 341.337 562.003 329.49 546.25 322.71C528.71 315.143 510.383 310.4 491.27 308.48C489.737 301.167 487.78 293.997 485.4 286.97L481.99 275.19C481.85 274.723 481.613 274.673 481.28 275.04C475.727 281.133 470.77 287.33 466.41 293.63C454.19 311.29 443.283 329.727 433.69 348.94C432.737 350.847 431.847 352.303 431.02 353.31C430.917 353.432 430.789 353.531 430.646 353.598C430.502 353.666 430.347 353.7 430.19 353.7C428.197 353.713 427.223 352.93 427.27 351.35C427.297 350.657 427.627 349.677 428.26 348.41C430.073 344.81 432.02 341.1 434.1 337.28C434.152 337.183 434.181 337.075 434.184 336.965C434.187 336.854 434.164 336.745 434.118 336.645C434.071 336.545 434.002 336.457 433.915 336.389C433.829 336.32 433.728 336.273 433.62 336.25C426.513 334.843 419.587 332.553 412.84 329.38C404.633 325.52 396.86 320.977 389.52 315.75C386.207 313.397 381.053 309.177 374.06 303.09C363.207 293.657 354.417 286.48 347.69 281.56C339.463 275.547 331.13 270.463 322.69 266.31C305.703 257.95 287.557 253.817 268.25 253.91C249.043 254.01 231.567 259.463 215.82 270.27C206.647 276.563 198.267 283.783 190.68 291.93C178.747 304.73 168.12 318.537 158.8 333.35C150.727 346.197 145.377 360.413 142.75 376C138.343 402.16 144.837 424.687 162.23 443.58C162.334 443.693 162.462 443.784 162.605 443.846C162.748 443.908 162.903 443.94 163.06 443.94L293.75 443.96ZM555.93 321.99C562.797 326.337 568.393 331.873 572.72 338.6C573.12 339.22 573.39 339.167 573.53 338.44L579.48 307.53C579.573 307.05 579.413 306.937 579 307.19L555.93 321.29C555.87 321.327 555.82 321.378 555.786 321.439C555.752 321.501 555.734 321.57 555.734 321.64C555.734 321.71 555.752 321.779 555.786 321.841C555.82 321.902 555.87 321.953 555.93 321.99ZM577.52 344.66C577.113 345.86 577.023 346.807 577.25 347.5C578.43 351.127 579.43 355.543 580.25 360.75C582.01 371.903 583.707 383.067 585.34 394.24C585.76 397.127 586 399.947 586.06 402.7C586.061 402.778 586.078 402.854 586.11 402.925C586.142 402.995 586.187 403.059 586.244 403.111C586.302 403.164 586.369 403.204 586.442 403.229C586.515 403.255 586.593 403.265 586.67 403.26L603.24 402C603.279 401.996 603.317 401.983 603.35 401.961C603.382 401.94 603.409 401.91 603.428 401.876C603.447 401.841 603.457 401.802 603.457 401.763C603.458 401.724 603.448 401.685 603.43 401.65C593.403 382.697 585.227 363.057 578.9 342.73C578.784 342.37 578.588 342.088 578.35 341.94C577.663 341.527 577.42 342.11 577.62 343.69C577.66 344.017 577.627 344.34 577.52 344.66ZM413.5 443.96L439.17 444C439.324 444 439.471 443.939 439.58 443.83C439.689 443.721 439.75 443.574 439.75 443.42C439.75 436.807 439.77 430.417 439.81 424.25C439.857 417.843 437.567 412.697 432.94 408.81C429.147 405.63 424.583 403.707 419.25 403.04C408.81 401.92 400.64 405.567 394.74 413.98C391.747 418.247 390.227 423.003 390.18 428.25C390.133 433.23 390.223 438.31 390.45 443.49C390.455 443.627 390.514 443.757 390.615 443.852C390.716 443.947 390.85 444 390.99 444L413.5 443.96ZM585.48 414.43C584.307 425.03 579.79 434.74 571.93 443.56C571.677 443.853 571.743 444 572.13 444L646.37 443.98C649.95 444.113 653.18 442.64 656.06 439.56C659.84 435.527 662.52 430.72 664.1 425.14C664.207 424.764 664.231 424.368 664.171 423.982C664.11 423.595 663.967 423.226 663.75 422.9C659.23 416.167 653.137 411.523 645.47 408.97C637.117 406.19 629.627 405.033 623 405.5C611.16 406.333 599.08 407.27 586.76 408.31C586.566 408.328 586.383 408.421 586.244 408.572C586.105 408.724 586.019 408.925 586 409.14L585.48 414.43Z" fill="black"/>
<path d="M131.96 117.27C127.647 122.69 126.107 128.56 127.34 134.88C127.74 136.907 128.773 139.103 130.44 141.47C132.593 144.53 134.777 147.567 136.99 150.58C140.97 156 143.74 160.117 145.3 162.93C151.54 174.15 155.357 186.257 156.75 199.25C157.55 206.69 157.883 211.94 157.75 215C156.737 237.953 154.487 260.787 151 283.5C149.907 290.64 149.283 297.823 149.13 305.05C142.043 312.477 135.623 320.5 129.87 329.12C129.043 330.367 127.99 332.12 126.71 334.38C125.717 336.14 124.67 337.897 123.57 339.65C123.483 336.39 123.627 332.673 124 328.5C126.087 305.033 129.177 281.7 133.27 258.5C134.383 252.187 135.453 245.867 136.48 239.54C141.973 205.68 134.877 175.52 115.19 149.06C113.23 146.427 111.657 144.117 110.47 142.13C108.983 139.63 108.033 137.043 107.62 134.37C106.513 127.17 108.857 121.56 114.65 117.54C117.377 115.653 120.167 114.71 123.02 114.71C126.04 114.717 129.02 115.57 131.96 117.27Z" fill="#D9D9D9"/>
<path d="M131.96 117.27C135.567 119.31 138.967 121.917 142.16 125.09C148.127 131.017 152.953 137.763 156.64 145.33C165.033 162.55 170.397 180.68 172.73 199.72C174.997 218.253 174.337 237.347 170.75 257C169.99 261.153 168.263 272.12 165.57 289.9C159.77 294.427 154.29 299.477 149.13 305.05C149.283 297.823 149.907 290.64 151 283.5C154.487 260.787 156.737 237.953 157.75 215C157.883 211.94 157.55 206.69 156.75 199.25C155.357 186.257 151.54 174.15 145.3 162.93C143.74 160.117 140.97 156 136.99 150.58C134.777 147.567 132.593 144.53 130.44 141.47C128.773 139.103 127.74 136.907 127.34 134.88C126.107 128.56 127.647 122.69 131.96 117.27Z" fill="white"/>
<path d="M735.71 311.75C735.277 311.843 735.02 312.09 734.94 312.49C732.133 325.67 727 337.87 719.54 349.09C708.387 365.877 694.477 379.95 677.81 391.31C676.07 392.497 674.563 393.143 673.29 393.25C671.083 348.383 662.09 304.53 646.31 261.69C641.657 249.05 636.597 237.183 631.13 226.09C627.37 218.47 624.26 212.577 621.8 208.41C616.82 199.99 611.033 192.29 604.44 185.31C601.707 182.423 598.467 179.687 594.72 177.1C594.447 176.907 594.477 176.803 594.81 176.79C636.137 174.883 670.47 188.933 697.81 218.94C704.69 226.487 710.773 234.803 716.06 243.89C719.353 249.55 722.227 255.557 724.68 261.91C730.847 277.883 734.523 294.497 735.71 311.75ZM653.36 204.54C678.113 217.42 696.27 236.58 707.83 262.02C707.857 262.073 708.05 262.62 708.41 263.66C708.837 264.873 709.63 265.757 710.79 266.31C711.093 266.452 711.431 266.48 711.74 266.39C712.673 266.123 713.283 265.587 713.57 264.78C713.79 264.147 713.683 263.317 713.25 262.29C701.41 233.983 681.703 213.063 654.13 199.53C653.831 199.381 653.501 199.332 653.19 199.39C650.83 199.797 650.1 200.833 651 202.5C651.413 203.26 652.2 203.94 653.36 204.54Z" fill="#D9D9D9"/>
<path d="M584.28 299.49C583.921 299.309 583.513 299.225 583.094 299.246C582.675 299.267 582.258 299.392 581.88 299.61L573.51 304.46C573.458 304.49 573.4 304.507 573.34 304.51C573.28 304.513 573.219 304.502 573.163 304.476C573.107 304.451 573.057 304.413 573.016 304.365C572.976 304.317 572.946 304.261 572.93 304.2C566.797 282.093 563.43 259.61 562.83 236.75C562.61 228.277 562.647 221.613 562.94 216.76C563.4 209.1 564.587 201.68 566.5 194.5C567.173 191.987 568.173 189.487 569.5 187C571.007 184.187 572.657 182.117 574.45 180.79C578.09 178.09 582.377 177.64 587.31 179.44C589.583 180.267 591.8 181.403 593.96 182.85C595.7 184.01 597.583 185.603 599.61 187.63C606.35 194.37 612.333 202.307 617.56 211.44C622.573 220.187 626.297 227.21 628.73 232.51C650.203 279.123 663.12 328.037 667.48 379.25C668.547 391.777 668.2 404.26 666.44 416.7C666.333 417.447 666.057 417.517 665.61 416.91C663.137 413.563 659.993 410.783 656.18 408.57C649.747 404.823 642.827 402.45 635.42 401.45C627.113 400.33 618.64 400.37 610 401.57C609.764 401.603 609.524 401.564 609.312 401.459C609.1 401.353 608.925 401.186 608.81 400.98C604.677 393.58 601.053 386.213 597.94 378.88C591.387 363.447 585.533 347.613 580.38 331.38C580.22 330.86 580.19 330.333 580.29 329.8C582.143 320.36 583.873 311.26 585.48 302.5C585.747 301.027 585.347 300.023 584.28 299.49Z" fill="#AEAEAE"/>
<path d="M651 202.5C650.1 200.833 650.83 199.797 653.19 199.39C653.501 199.332 653.831 199.381 654.13 199.53C681.703 213.063 701.41 233.983 713.25 262.29C713.683 263.317 713.79 264.147 713.57 264.78C713.283 265.587 712.673 266.123 711.74 266.39C711.431 266.48 711.093 266.452 710.79 266.31C709.63 265.757 708.837 264.873 708.41 263.66C708.05 262.62 707.857 262.073 707.83 262.02C696.27 236.58 678.113 217.42 653.36 204.54C652.2 203.94 651.413 203.26 651 202.5Z" fill="black"/>
<path d="M485.4 286.97C481.92 296.69 478.38 306.383 474.78 316.05C470.6 327.243 465.093 337.737 458.26 347.53C453.927 353.743 448.903 358.797 443.19 362.69C438.13 366.137 432.713 367.753 426.94 367.54C422.053 367.36 417.03 365.737 411.87 362.67C407.33 359.977 403.187 356.523 399.44 352.31C390.42 342.177 380.037 331.897 368.29 321.47C356.163 310.697 344.567 302.207 333.5 296C322.82 290.007 311.623 285.223 299.91 281.65C295.65 280.35 291.597 279.633 287.75 279.5C275.65 279.087 263.66 280.823 251.78 284.71C242.24 287.83 233.497 292.443 225.55 298.55C217.73 304.563 211.75 311.86 207.61 320.44C205.083 325.68 203.16 332.033 201.84 339.5C199.94 350.207 199.66 360.707 201 371C201.74 376.7 203.6 382.117 206.58 387.25C208.987 391.41 212.2 395.2 216.22 398.62C220.04 401.873 224.223 404.65 228.77 406.95C237.49 411.363 246.32 415.543 255.26 419.49C266.513 424.45 277.177 430.453 287.25 437.5C290.317 439.647 292.483 441.8 293.75 443.96L163.06 443.94C162.903 443.94 162.748 443.908 162.605 443.846C162.462 443.784 162.334 443.693 162.23 443.58C144.837 424.687 138.343 402.16 142.75 376C145.377 360.413 150.727 346.197 158.8 333.35C168.12 318.537 178.747 304.73 190.68 291.93C198.267 283.783 206.647 276.563 215.82 270.27C231.567 259.463 249.043 254.01 268.25 253.91C287.557 253.817 305.703 257.95 322.69 266.31C331.13 270.463 339.463 275.547 347.69 281.56C354.417 286.48 363.207 293.657 374.06 303.09C381.053 309.177 386.207 313.397 389.52 315.75C396.86 320.977 404.633 325.52 412.84 329.38C419.587 332.553 426.513 334.843 433.62 336.25C433.728 336.273 433.829 336.32 433.915 336.389C434.002 336.457 434.071 336.545 434.118 336.645C434.164 336.745 434.187 336.854 434.184 336.965C434.181 337.075 434.152 337.183 434.1 337.28C432.02 341.1 430.073 344.81 428.26 348.41C427.627 349.677 427.297 350.657 427.27 351.35C427.223 352.93 428.197 353.713 430.19 353.7C430.347 353.7 430.502 353.666 430.646 353.598C430.789 353.531 430.917 353.432 431.02 353.31C431.847 352.303 432.737 350.847 433.69 348.94C443.283 329.727 454.19 311.29 466.41 293.63C470.77 287.33 475.727 281.133 481.28 275.04C481.613 274.673 481.85 274.723 481.99 275.19L485.4 286.97ZM467.39 317.4C469.423 318.287 470.657 317.593 471.09 315.32C472.243 309.273 475.28 303.29 480.2 297.37C480.476 297.037 480.648 296.63 480.696 296.2C480.744 295.77 480.666 295.336 480.47 294.95C479.343 292.71 477.763 292.72 475.73 294.98C470.723 300.573 467.53 307.277 466.15 315.09C466.068 315.558 466.145 316.041 466.37 316.46C466.595 316.879 466.954 317.21 467.39 317.4Z" fill="#D9D9D9"/>
<path d="M485.4 286.97C487.78 293.997 489.737 301.167 491.27 308.48C487.89 317.467 489.263 323.93 495.39 327.87C499.11 330.263 504.55 331.553 511.71 331.74C523.923 332.073 535.437 329.063 546.25 322.71C562.003 329.49 571.503 341.337 574.75 358.25C575.47 361.997 576.387 368.103 577.5 376.57C577.508 376.626 577.502 376.682 577.483 376.735C577.464 376.788 577.433 376.836 577.391 376.874C577.35 376.912 577.3 376.94 577.246 376.955C577.192 376.97 577.135 376.972 577.08 376.96C571.36 375.827 565.853 376.59 560.56 379.25C558.947 380.057 558.667 381.193 559.72 382.66C560.733 384.067 562.17 384.3 564.03 383.36C567.977 381.38 572.117 380.95 576.45 382.07C577.797 382.41 578.587 383.267 578.82 384.64C579.68 389.773 580.35 395.067 580.83 400.52C581.483 407.867 580.457 415.943 577.75 424.75C575.39 432.437 570.867 438.5 564.18 442.94C563.12 443.647 561.953 444 560.68 444H445.25C445.117 444 444.99 443.947 444.896 443.854C444.803 443.76 444.75 443.633 444.75 443.5C444.75 436.833 444.72 430.167 444.66 423.5C444.587 415.38 441.513 408.983 435.44 404.31C430.7 400.663 425.053 398.463 418.5 397.71C418.573 396.31 418.137 395.343 417.19 394.81C412.317 392.063 406.92 390.637 401 390.53C389.88 390.33 381.453 394.463 375.72 402.93C374.287 405.043 373.043 407.567 371.99 410.5C370.857 413.633 370.193 416.383 370 418.75C369.487 424.93 369.557 433.34 370.21 443.98L293.75 443.96C292.483 441.8 290.317 439.647 287.25 437.5C277.177 430.453 266.513 424.45 255.26 419.49C246.32 415.543 237.49 411.363 228.77 406.95C224.223 404.65 220.04 401.873 216.22 398.62C212.2 395.2 208.987 391.41 206.58 387.25C203.6 382.117 201.74 376.7 201 371C199.66 360.707 199.94 350.207 201.84 339.5C203.16 332.033 205.083 325.68 207.61 320.44C211.75 311.86 217.73 304.563 225.55 298.55C233.497 292.443 242.24 287.83 251.78 284.71C263.66 280.823 275.65 279.087 287.75 279.5C291.597 279.633 295.65 280.35 299.91 281.65C311.623 285.223 322.82 290.007 333.5 296C344.567 302.207 356.163 310.697 368.29 321.47C380.037 331.897 390.42 342.177 399.44 352.31C403.187 356.523 407.33 359.977 411.87 362.67C417.03 365.737 422.053 367.36 426.94 367.54C432.713 367.753 438.13 366.137 443.19 362.69C448.903 358.797 453.927 353.743 458.26 347.53C465.093 337.737 470.6 327.243 474.78 316.05C478.38 306.383 481.92 296.69 485.4 286.97ZM482.5 370.01L473.71 369.45C473.432 369.432 473.158 369.519 472.943 369.693C472.728 369.868 472.587 370.117 472.55 370.39C470.363 386.317 476.897 395.37 492.15 397.55C505.183 402.15 514.96 398.74 521.48 387.32C523.06 384.56 524.177 381.487 524.83 378.1C524.878 377.854 525.015 377.633 525.217 377.479C525.419 377.325 525.672 377.247 525.93 377.26L530.27 377.54C530.723 377.569 531.173 377.448 531.552 377.195C531.931 376.942 532.218 376.572 532.37 376.14C533.737 372.32 534.753 368.357 535.42 364.25C535.445 364.09 535.438 363.927 535.398 363.772C535.359 363.617 535.288 363.473 535.19 363.35C533.223 360.89 531.68 361.21 530.56 364.31C530.24 365.21 529.573 367.753 528.56 371.94C528.527 372.077 528.448 372.198 528.337 372.282C528.225 372.366 528.088 372.408 527.95 372.4L482.5 370.01ZM521.22 429.59C521.519 429.839 521.885 429.995 522.271 430.037C522.656 430.08 523.046 430.008 523.39 429.83C527.75 427.583 532.453 426.327 537.5 426.06C542.213 425.807 545.887 427.473 548.52 431.06C548.54 431.087 548.83 431.567 549.39 432.5C550.463 434.28 551.787 434.443 553.36 432.99C553.713 432.666 553.948 432.235 554.03 431.765C554.111 431.294 554.034 430.811 553.81 430.39C551.57 426.13 548.593 423.43 544.88 422.29C544.771 422.257 544.67 422.201 544.583 422.127C544.497 422.053 544.426 421.962 544.375 421.859C544.325 421.756 544.296 421.643 544.289 421.529C544.283 421.414 544.301 421.298 544.34 421.19C545.567 417.81 546.513 414.137 547.18 410.17C547.304 409.437 547.626 408.749 548.11 408.18C550.743 405.093 552.983 402.32 554.83 399.86C555.87 398.48 555.907 397.357 554.94 396.49C554.413 396.01 553.543 395.743 552.33 395.69C547.97 395.51 543.61 395.31 539.25 395.09C536.697 394.963 535.553 395.797 535.82 397.59C535.927 398.337 536.407 399.327 537.26 400.56C538.927 402.973 540.58 405.397 542.22 407.83C542.4 408.101 542.475 408.428 542.43 408.75C541.87 412.703 540.853 416.527 539.38 420.22C539.323 420.358 539.229 420.478 539.107 420.566C538.985 420.655 538.841 420.708 538.69 420.72C533.077 421.093 527.713 422.423 522.6 424.71C521.46 425.223 520.703 425.767 520.33 426.34C519.623 427.413 519.92 428.497 521.22 429.59Z" fill="white"/>
<path d="M165.57 289.9C164.477 298.607 163.663 307.277 163.13 315.91C163.037 317.31 162.613 318.597 161.86 319.77C159.493 323.423 157.14 327.087 154.8 330.76C143.78 348.067 137.68 366.73 136.5 386.75C135.98 395.57 136.98 404.633 139.5 413.94C139.533 414.087 139.613 414.237 139.74 414.39C140.02 414.763 139.993 414.957 139.66 414.97C139.563 414.974 139.464 414.945 139.372 414.886C139.281 414.828 139.2 414.743 139.14 414.64C132 402.18 127.35 388.403 125.19 373.31C123.457 361.223 122.917 350.003 123.57 339.65C124.67 337.897 125.717 336.14 126.71 334.38C127.99 332.12 129.043 330.367 129.87 329.12C135.623 320.5 142.043 312.477 149.13 305.05C154.29 299.477 159.77 294.427 165.57 289.9Z" fill="#AEAEAE"/>
<path d="M467.39 317.4C466.954 317.21 466.595 316.879 466.37 316.46C466.145 316.041 466.068 315.558 466.15 315.09C467.53 307.277 470.723 300.573 475.73 294.98C477.763 292.72 479.343 292.71 480.47 294.95C480.666 295.336 480.744 295.77 480.696 296.2C480.648 296.63 480.476 297.037 480.2 297.37C475.28 303.29 472.243 309.273 471.09 315.32C470.657 317.593 469.423 318.287 467.39 317.4Z" fill="black"/>
<path d="M555.93 321.99C555.87 321.953 555.82 321.902 555.786 321.841C555.752 321.779 555.734 321.71 555.734 321.64C555.734 321.57 555.752 321.501 555.786 321.439C555.82 321.378 555.87 321.327 555.93 321.29L579 307.19C579.413 306.937 579.573 307.05 579.48 307.53L573.53 338.44C573.39 339.167 573.12 339.22 572.72 338.6C568.393 331.873 562.797 326.337 555.93 321.99Z" fill="#D9D9D9"/>
<path d="M491.27 308.48C510.383 310.4 528.71 315.143 546.25 322.71C535.437 329.063 523.923 332.073 511.71 331.74C504.55 331.553 499.11 330.263 495.39 327.87C489.263 323.93 487.89 317.467 491.27 308.48Z" fill="#D9D9D9"/>
<path d="M735.71 311.75C738.29 346.71 728.833 377.12 707.34 402.98C703.273 407.873 698.64 412.653 693.44 417.32C684.373 425.453 674.603 432.523 664.13 438.53C663.75 438.75 663.663 438.667 663.87 438.28C669.037 428.427 671.967 418.337 672.66 408.01C672.987 403.097 673.197 398.177 673.29 393.25C674.563 393.143 676.07 392.497 677.81 391.31C694.477 379.95 708.387 365.877 719.54 349.09C727 337.87 732.133 325.67 734.94 312.49C735.02 312.09 735.277 311.843 735.71 311.75Z" fill="white"/>
<path d="M577.62 343.69C577.42 342.11 577.663 341.527 578.35 341.94C578.588 342.088 578.784 342.37 578.9 342.73C585.227 363.057 593.403 382.697 603.43 401.65C603.448 401.685 603.458 401.724 603.457 401.763C603.457 401.802 603.447 401.841 603.428 401.876C603.409 401.91 603.382 401.94 603.35 401.961C603.317 401.983 603.279 401.996 603.24 402L586.67 403.26C586.593 403.265 586.515 403.255 586.442 403.23C586.369 403.204 586.302 403.164 586.244 403.111C586.187 403.059 586.142 402.995 586.11 402.925C586.078 402.854 586.061 402.778 586.06 402.7C586 399.947 585.76 397.127 585.34 394.24C583.707 383.067 582.01 371.903 580.25 360.75C579.43 355.543 578.43 351.127 577.25 347.5C577.023 346.807 577.113 345.86 577.52 344.66C577.627 344.34 577.66 344.017 577.62 343.69Z" fill="#E8EAE9"/>
<path d="M492.15 397.55C488.763 395.077 486.277 392.247 484.69 389.06C481.937 383.547 481.207 377.197 482.5 370.01L527.95 372.4C528.088 372.408 528.225 372.366 528.337 372.282C528.448 372.198 528.527 372.077 528.56 371.94C529.573 367.753 530.24 365.21 530.56 364.31C531.68 361.21 533.223 360.89 535.19 363.35C535.288 363.473 535.359 363.617 535.398 363.772C535.438 363.927 535.445 364.09 535.42 364.25C534.753 368.357 533.737 372.32 532.37 376.14C532.218 376.572 531.931 376.942 531.552 377.195C531.173 377.448 530.723 377.569 530.27 377.54L525.93 377.26C525.672 377.247 525.419 377.325 525.217 377.479C525.015 377.633 524.878 377.854 524.83 378.1C524.177 381.487 523.06 384.56 521.48 387.32C514.96 398.74 505.183 402.15 492.15 397.55ZM497.6 393.52C505.74 396.1 512.203 393.403 516.99 385.43C517.163 385.143 517.087 385.043 516.76 385.13C509.027 387.037 504.687 384.1 503.74 376.32C503.724 376.182 503.659 376.055 503.556 375.96C503.454 375.865 503.321 375.808 503.18 375.8L487.56 374.86C487.425 374.851 487.292 374.895 487.19 374.98C487.087 375.066 487.023 375.188 487.01 375.32C486.503 380.393 487.627 384.793 490.38 388.52C492.127 390.88 494.533 392.547 497.6 393.52Z" fill="black"/>
<path d="M482.5 370.01C481.207 377.197 481.937 383.547 484.69 389.06C486.277 392.247 488.763 395.077 492.15 397.55C476.897 395.37 470.363 386.317 472.55 370.39C472.587 370.117 472.728 369.868 472.943 369.693C473.158 369.519 473.432 369.432 473.71 369.45L482.5 370.01Z" fill="#D9D9D9"/>
<path d="M490.38 388.52C487.627 384.793 486.503 380.393 487.01 375.32C487.023 375.188 487.087 375.066 487.19 374.98C487.292 374.895 487.425 374.851 487.56 374.86L503.18 375.8C503.321 375.808 503.454 375.865 503.556 375.96C503.659 376.055 503.724 376.182 503.74 376.32C504.687 384.1 509.027 387.037 516.76 385.13C517.087 385.043 517.163 385.143 516.99 385.43C512.203 393.403 505.74 396.1 497.6 393.52C494.533 392.547 492.127 390.88 490.38 388.52Z" fill="white"/>
<path d="M418.5 397.71C402.587 397.463 391.953 404.67 386.6 419.33C385.673 421.883 385.243 424.523 385.31 427.25C385.437 432.583 385.5 437.983 385.5 443.45C385.5 443.522 385.486 443.594 385.458 443.66C385.43 443.727 385.39 443.788 385.339 443.839C385.288 443.89 385.227 443.931 385.16 443.958C385.094 443.986 385.022 444 384.95 444L370.21 443.98C369.557 433.34 369.487 424.93 370 418.75C370.193 416.383 370.857 413.633 371.99 410.5C373.043 407.567 374.287 405.043 375.72 402.93C381.453 394.463 389.88 390.33 401 390.53C406.92 390.637 412.317 392.063 417.19 394.81C418.137 395.343 418.573 396.31 418.5 397.71Z" fill="#D9D9D9"/>
<path d="M521.22 429.59C519.92 428.497 519.623 427.413 520.33 426.34C520.703 425.767 521.46 425.223 522.6 424.71C527.713 422.423 533.077 421.093 538.69 420.72C538.841 420.708 538.985 420.655 539.107 420.566C539.229 420.478 539.323 420.358 539.38 420.22C540.853 416.527 541.87 412.703 542.43 408.75C542.475 408.428 542.4 408.101 542.22 407.83C540.58 405.397 538.927 402.973 537.26 400.56C536.407 399.327 535.927 398.337 535.82 397.59C535.553 395.797 536.697 394.963 539.25 395.09C543.61 395.31 547.97 395.51 552.33 395.69C553.543 395.743 554.413 396.01 554.94 396.49C555.907 397.357 555.87 398.48 554.83 399.86C552.983 402.32 550.743 405.093 548.11 408.18C547.626 408.749 547.304 409.437 547.18 410.17C546.513 414.137 545.567 417.81 544.34 421.19C544.301 421.298 544.283 421.414 544.29 421.529C544.296 421.643 544.325 421.756 544.375 421.859C544.426 421.962 544.497 422.053 544.583 422.127C544.67 422.201 544.771 422.257 544.88 422.29C548.593 423.43 551.57 426.13 553.81 430.39C554.034 430.811 554.111 431.294 554.03 431.765C553.948 432.235 553.713 432.666 553.36 432.99C551.787 434.443 550.463 434.28 549.39 432.5C548.83 431.567 548.54 431.087 548.52 431.06C545.887 427.473 542.213 425.807 537.5 426.06C532.453 426.327 527.75 427.583 523.39 429.83C523.046 430.008 522.656 430.08 522.271 430.037C521.885 429.995 521.519 429.839 521.22 429.59Z" fill="black"/>
<path d="M419.25 403.04C419.637 415.387 419.72 424.707 419.5 431C419.327 436.033 417.327 440.353 413.5 443.96L390.99 444C390.85 444 390.716 443.947 390.615 443.852C390.514 443.757 390.455 443.627 390.45 443.49C390.223 438.31 390.133 433.23 390.18 428.25C390.227 423.003 391.747 418.247 394.74 413.98C400.64 405.567 408.81 401.92 419.25 403.04Z" fill="#AEAEAE"/>
<path d="M419.25 403.04C424.583 403.707 429.147 405.63 432.94 408.81C437.567 412.697 439.857 417.843 439.81 424.25C439.77 430.417 439.75 436.807 439.75 443.42C439.75 443.574 439.689 443.721 439.58 443.83C439.471 443.939 439.324 444 439.17 444L413.5 443.96C417.327 440.353 419.327 436.033 419.5 431C419.72 424.707 419.637 415.387 419.25 403.04Z" fill="white"/>
<path d="M646.37 443.98C648.01 438.073 647.69 432.557 645.41 427.43C644.297 424.917 642.647 422.757 640.46 420.95C638.32 419.183 635.94 417.76 633.32 416.68C627.133 414.14 620.693 412.747 614 412.5C606.407 412.22 596.9 412.863 585.48 414.43L586 409.14C586.019 408.925 586.105 408.724 586.244 408.572C586.383 408.421 586.566 408.328 586.76 408.31C599.08 407.27 611.16 406.333 623 405.5C629.627 405.033 637.117 406.19 645.47 408.97C653.137 411.523 659.23 416.167 663.75 422.9C663.967 423.226 664.11 423.595 664.171 423.982C664.231 424.368 664.207 424.763 664.1 425.14C662.52 430.72 659.84 435.527 656.06 439.56C653.18 442.64 649.95 444.113 646.37 443.98Z" fill="#D9D9D9"/>
<path d="M646.37 443.98L572.13 444C571.743 444 571.677 443.853 571.93 443.56C579.79 434.74 584.307 425.03 585.48 414.43C596.9 412.863 606.407 412.22 614 412.5C620.693 412.747 627.133 414.14 633.32 416.68C635.94 417.76 638.32 419.183 640.46 420.95C642.647 422.757 644.297 424.917 645.41 427.43C647.69 432.557 648.01 438.073 646.37 443.98Z" fill="white"/>
<path d="M46.8 443.63L77.6 444C78.98 444.013 79.7833 444.677 80.01 445.99C80.3366 447.843 79.4167 448.783 77.25 448.81C69.33 448.917 61.4133 448.993 53.5 449.04L45.31 448.94C42.9966 448.907 42.3933 447.677 43.5 445.25C43.8667 444.45 44.9667 443.91 46.8 443.63Z" fill="black"/>
<path d="M754.75 444.04C764.25 443.993 773.75 443.943 783.25 443.89C786.077 443.877 787.117 445.037 786.37 447.37C786.219 447.843 785.922 448.256 785.521 448.549C785.12 448.842 784.637 449 784.14 449H755.15C752.463 447.653 752.33 446 754.75 444.04Z" fill="black"/>
</svg>
